<?xml version="1.0" standalone="no"?>
<!DOCTYPE svg PUBLIC "-//W3C//DTD SVG 1.1//EN" "http://www.w3.org/Graphics/SVG/1.1/DTD/svg11.dtd" >
<svg xmlns="http://www.w3.org/2000/svg">
<metadata></metadata>
<defs>
<font id="monikaregular" horiz-adv-x="501" >
<font-face units-per-em="2048" ascent="1638" descent="-410" />
<missing-glyph horiz-adv-x="569" />
<glyph horiz-adv-x="2048" />
<glyph horiz-adv-x="2048" />
<glyph unicode="&#xd;" horiz-adv-x="569" />
<glyph unicode=" "  horiz-adv-x="569" />
<glyph unicode="&#x09;" horiz-adv-x="569" />
<glyph unicode="&#xa0;" horiz-adv-x="569" />
<glyph unicode="!" horiz-adv-x="303" d="M43 13v37q0 29 63 38l50 -38v-37q0 -19 -50 -38q-63 17 -63 38zM50 1332q0 100 50 100t50 -100l-35 -1081h-30z" />
<glyph unicode="&#x22;" horiz-adv-x="600" d="M98 1201l142 268q13 9 27 9q19 0 30 -14q5 -8 5 -17q0 -12 -12 -28l-154 -218h-38zM288 1201l142 268q13 9 27 9q19 0 30 -14q5 -8 5 -17q0 -12 -12 -28l-154 -218h-38z" />
<glyph unicode="#" horiz-adv-x="1163" />
<glyph unicode="$" horiz-adv-x="402" d="M30 1038v67q10 232 224 357h25l25 -25q-189 -60 -199 -269v-50q0 -113 164 -465q37 -113 37 -226q-78 -427 -201 -427h-12l-25 25q125 229 125 364v88q0 103 -81.5 302t-81.5 259z" />
<glyph unicode="%" horiz-adv-x="1123" d="M89 1040q0 89 20.5 157.5t53 113.5t69.5 67t71 22q31 0 67 -22.5t66 -64t49.5 -99t19.5 -124.5q0 -89 -22 -161t-57 -123t-78.5 -77.5t-89.5 -26.5q-57 0 -94 46q-75 97 -75 292zM146 1049q0 -67 14 -119.5t47 -107.5q29 -55 82 -55h20q71 71 103.5 151t32.5 159 q0 149 -111 251q-18 8 -35 8q-58 0 -105.5 -84t-47.5 -203zM184 -10q426 926 832 1519v-14q17 -10 20 -32q-235 -384 -443 -772t-351 -755l-20 -2q-14 4 -24 18t-14 38zM656 354q0 91 20 161t51.5 118t70 71.5t78.5 23.5q74 0 136 -86t62 -251q0 -184 -68 -280t-156 -96 q-79 0 -136.5 88.5t-57.5 250.5zM716 362q0 -93 17.5 -161t86.5 -125q62 -4 124 23q69 131 69 263q0 238 -102 290h-18q-80 0 -128.5 -78.5t-48.5 -211.5z" />
<glyph unicode="&#x26;" horiz-adv-x="916" d="M30 522q0 350 347 591q-183 93 -183 230q0 123 72 193.5t199 70.5q47 0 86 -17q7 -9 7 -29q0 -11 -3 -17q-14 9 -64 9q-94 0 -150.5 -57.5t-56.5 -158.5q0 -92 117 -214q81 0 81 -3l25 -4q-166 -29 -272.5 -185.5t-106.5 -391.5q0 -215 82 -337.5t230 -122.5 q122 0 205 102t83 257q0 130 -49.5 210.5t-178.5 125.5q-100 -79 -100 -205q0 -44 5 -61q-9 -5 -26 -8q-10 -2 -12.5 -5t-5.5 -13q-12 27 -19 51t-7 51q0 56 19.5 98.5t54 81t81.5 75.5t99 81q109 94 166 186.5t57 212.5q0 10 15.5 15.5t51.5 5.5q19 0 45 -13 q-18 -117 -88.5 -221t-254.5 -252q145 -103 190 -193.5t45 -220.5q0 -93 -29 -172t-80 -135.5t-120.5 -89t-152.5 -32.5q-91 0 -165 35t-127 101.5t-82.5 161t-29.5 213.5z" />
<glyph unicode="'" horiz-adv-x="241" d="M98 968v503h45v-503h-45z" />
<glyph unicode="(" horiz-adv-x="513" d="M110 602q0 421 77.5 693t184.5 367q23 -3 39.5 -15t18.5 -20q-94 -118 -156 -363t-62 -580q0 -347 43 -604t134 -415q-4 -10 -26.5 -23.5t-50.5 -16.5q-98 130 -150 377.5t-52 599.5z" />
<glyph unicode=")" d="M49 -341q92 119 156 362.5t64 578.5q0 345 -42.5 604.5t-133.5 416.5q5 12 27.5 25t49.5 16q98 -131 149 -379.5t51 -600.5q0 -420 -78 -691t-185 -367q-52 4 -58 35z" />
<glyph unicode="*" horiz-adv-x="633" d="M53 1487q39 -15 82.5 -33t139.5 -64q5 97 8 144.5t6 74.5h3q6 0 10.5 -34t17.5 -183q86 43 127 63t87 42q-36 -30 -74 -58t-125 -86q84 -53 122.5 -79.5t82.5 -58.5l-3 2q-44 16 -86 35t-131 61q-5 -97 -10 -143.5t-9 -73.5l-3 -17q-6 36 -10 84.5t-13 147.5 q-92 -42 -135 -62.5t-79 -36.5q46 36 85 64.5t101 77.5q-64 43 -103.5 70.5t-90.5 62.5z" />
<glyph unicode="+" horiz-adv-x="1456" d="M198 624v43h430v425h45v-425h428v-43h-428v-417h-45v417h-430z" />
<glyph unicode="," horiz-adv-x="402" d="M112 -214l98 185q-17 19 -18 41q4 60 52 60q52 0 52 -64q-2 -10 -5 -21l-5 -10l-6 -8l-130 -183h-38z" />
<glyph unicode="-" horiz-adv-x="612" d="M128 723q0 31 14 31h280q6 0 6 -31q0 -30 -6 -30h-281q-13 0 -13 30z" />
<glyph unicode="." horiz-adv-x="291" d="M82 12q9 60 52 60q52 0 52 -64q-9 -56 -56 -56q-31 0 -48 60z" />
<glyph unicode="/" horiz-adv-x="1002" d="M35 -10q426 926 832 1519v-14q17 -10 19 -32q-235 -384 -442.5 -772t-350.5 -755l-20 -2q-14 4 -24.5 18t-13.5 38z" />
<glyph unicode="0" horiz-adv-x="580" d="M57 754q0 296 65.5 528.5t167.5 232.5t167 -231.5t65 -529.5q0 -301 -63 -538q-67 -252 -169 -252t-167.5 243.5t-65.5 546.5zM179 754q0 -345 23 -515q28 -217 88 -217q59 0 88 217q22 172 22 515q0 337 -22 500q-28 202 -88 202q-59 0 -87 -202q-24 -168 -24 -500z" />
<glyph unicode="1" horiz-adv-x="650" d="M297 -10v1499h96v-1499h-96z" />
<glyph unicode="2" horiz-adv-x="598" d="M69 -10q60 132 92 206q92 213 147 364q39 115 63 227q34 161 34 300q0 21 -0.5 37t-1.5 28q-7 152 -34 221q-29 75 -74 75q-65 0 -98 -140q-12 -48 -19 -157h-105q19 124 38 177q61 171 181 171q105 0 170 -123q58 -108 58 -252q0 -268 -120 -550q-33 -80 -89 -199 q-41 -86 -86 -178q-19 -37 -32 -64h334v-143h-458z" />
<glyph unicode="3" horiz-adv-x="589" d="M69 349l104 6v-24q-1 -18 -1 -34q0 -111 17 -180q26 -105 79 -105q47 0 80 65q33 63 47 181q6 49 10.5 113t4.5 133q0 81 -9 155t-29 128q-35 93 -67 124t-98 31l123 481l-239 -70v132h361l-119 -478q13 -10 24 -21q65 -66 108 -182q30 -80 45 -165t15 -172 q0 -166 -49 -306q-33 -91 -88 -148t-118 -57q-58 0 -101 49q-70 79 -92 214q-7 44 -8 130z" />
<glyph unicode="4" horiz-adv-x="555" d="M10 389l312 1100h106l-289 -1035l174 44v452h106v-418l87 35v-178h-87v-399h-106v399h-303z" />
<glyph unicode="5" horiz-adv-x="587" d="M65 342v39h112q-2 -24 -3 -48t-1 -38q0 -105 18 -171q25 -91 75 -91q67 0 101 120q34 113 34 330q0 191 -38 308q-40 129 -108 129q-31 0 -62 -29q-10 -9 -56 -69v667h354v-169l-235 112v-434q47 -3 84 -22q102 -55 148 -223q18 -67 26.5 -133t8.5 -131 q0 -85 -13.5 -163.5t-37.5 -148.5q-30 -89 -87 -150t-123 -61q-58 0 -103 52q-79 100 -93 276q-1 19 -1 48z" />
<glyph unicode="6" horiz-adv-x="587" d="M65 721q0 266 69 513q78 277 190 277q97 0 142 -158q14 -50 28 -167h-109v20q0 15 1 31q0 111 -19 162t-42 51q-70 0 -109 -225q-29 -172 -31 -445q5 14 10 29l-1 10q20 35 33 50q47 54 101 54q95 0 150 -146q45 -122 45 -271q0 -164 -40 -313.5t-99 -201.5 q-41 -37 -88 -37q-103 0 -165 190q-66 206 -66 577zM185 702q0 -206 3 -278q8 -191 33 -291q29 -117 78 -117q52 0 83 132q26 114 26 284q0 185 -26.5 301.5t-61.5 116.5q-12 2 -14 2q-31 0 -56 -43q-42 -75 -65 -107z" />
<glyph unicode="7" horiz-adv-x="475" d="M34 1324v165h458l-245 -1499h-108l228 1429l-90 -19z" />
<glyph unicode="8" horiz-adv-x="589" d="M65 471q0 133 48 276q33 100 89 203q47 86 40 86q-14 25 -27 52q-35 70 -57 129q-27 70 -49 133q24 73 53.5 106t129.5 33q101 0 133 -21.5t59 -112.5q-21 -47 -56 -138q-19 -51 -57 -127q-13 -27 -28 -54q-6 0 40 -84q56 -101 89 -203q49 -147 49 -278q0 -223 -63 -366 t-165 -143t-165 141.5t-63 367.5zM176 1329q0 -24 56.5 -135t60.5 -111t60 110t56 136q-38 100 -117 100q-78 0 -116 -100zM182 444q0 -197 25 -298q30 -118 86 -118q55 0 85 118q26 105 26 298q0 189 -37 333q-47 188 -74 188q-26 0 -73 -186q-38 -148 -38 -335z" />
<glyph unicode="9" horiz-adv-x="588" d="M61 973q0 161 38.5 299.5t96.5 193.5q41 37 87 37q105 0 168 -193q67 -208 67 -579q0 -260 -75 -509q-82 -270 -194 -270q-98 0 -136 139q-13 44 -22 148h74q50 144 44 47.5t-6 -112.5q0 -68 11 -105q15 -55 43 -55q72 0 111 220q34 183 34 468q0 400 -43 590 q-34 152 -85 152q-52 0 -79 -126q-21 -99 -21 -265q0 -175 30 -275.5t70 -108.5q31 0 54 35q8 12 9 16l32 -38l-12 -17q-46 -69 -100 -69q-97 0 -150 117q-46 102 -46 260z" />
<glyph unicode=":" horiz-adv-x="291" d="M82 12q9 60 52 60q52 0 52 -64q-9 -56 -56 -56q-31 0 -48 60zM82 672q9 60 52 60q52 0 52 -64q-9 -56 -56 -56q-31 0 -48 60z" />
<glyph unicode=";" horiz-adv-x="291" d="M2 -214l98 185q-17 19 -18 41q4 60 52 60q52 0 52 -64q-2 -10 -5 -21l-5 -10l-6 -8l-130 -183h-38zM82 672q9 60 52 60q52 0 52 -64q-9 -56 -56 -56q-31 0 -48 60z" />
<glyph unicode="&#x3c;" horiz-adv-x="1196" />
<glyph unicode="=" horiz-adv-x="198" d="M1701 286q0 31 68 31h1356q27 0 27 -31q0 -30 -27 -30h-1363q-61 0 -61 30z" />
<glyph unicode="&#x3e;" horiz-adv-x="1196" />
<glyph unicode="?" horiz-adv-x="303" d="M43 13v37q0 29 63 38l50 -38v-37q0 -19 -50 -38q-63 17 -63 38zM43 1392v15q201 -74 201 -214q-126 -493 -126 -690v-189l-12 -63h-25l-25 289l87 678q0 114 -100 174z" />
<glyph unicode="@" horiz-adv-x="2079" />
<glyph unicode="A" horiz-adv-x="402" d="M27 65v983q3 161 57 292q38 93 87 122q21 12 33 12q11 0 33 -12q19 -29 58 -104q53 -149 56 -310v-983q0 -68 -18 -68q-48 0 -48 61v337h-162v-337q0 -61 -48 -61t-48 68zM123 456h162v506h-1v124q0 140 -80 289q-80 -149 -80 -289v-124h-1v-506z" />
<glyph unicode="B" horiz-adv-x="460" d="M30 37v1258q0 101 199 137q140 0 162 -199q0 -166 -162 -337v-13q168 -71 200 -144q32 -57 34 -142q-10 -352 -343 -597h-53zM126 72l16 -12q224 122 224 562q0 211 -226 211l-14 -12v-749zM126 871h28q150 124 150 350v74q0 68 -63 100q-114 -1 -115 -149v-375z" />
<glyph unicode="C" horiz-adv-x="507" d="M27 774q0 39 3 78q0 406 332 584h36l24 -24v-12l-12 -12q-166 -77 -212 -188q-72 -144 -72 -372q0 -358 240 -816l-12 -12h-96q-144 170 -228 696q-3 39 -3 78z" />
<glyph unicode="D" horiz-adv-x="594" d="M30 38v1256q0 94 201 138q226 0 276 -427v-163q0 -515 -377 -829l-75 -13zM126 63q263 245 263 779v125q-28 417 -188 417q-75 0 -75 -186v-1135z" />
<glyph unicode="E" horiz-adv-x="507" d="M27 774q0 39 3 78q0 406 332 584h36l24 -24v-12l-12 -12q-166 -77 -212 -188q-59 -119 -70 -298h204v-60h-206v-14q0 -358 240 -816l-12 -12h-96q-144 170 -228 696q-3 39 -3 78z" />
<glyph unicode="F" horiz-adv-x="384" d="M28 1439q0 31 14 31h12q10 5 24 5q13 0 23 -5h221q6 0 6 -31q0 -30 -6 -30h-196v-387h128q27 0 27 -31q0 -30 -27 -30h-128v-876l2 -61l-37 -24h-24l-37 37v1383q-2 7 -2 19z" />
<glyph unicode="G" horiz-adv-x="652" d="M30 591v176q0 569 251 665q7 1 13 1t12 -1q119 -33 185 -159h-89q-35 115 -83 124h-25h-4q-133 0 -152 -605v-113q0 -522 131 -653q10 -5 50 0q94 15 132 440h-68q-61 0 -61 30q0 31 68 31h146q25 0 27 -26h1q-48 -426 -259 -513h-11q-226 0 -264 603z" />
<glyph unicode="H" horiz-adv-x="507" d="M30 37v1377q0 61 48 61t48 -68v-606h206v613q0 61 48 61q18 0 18 -68v-1322l2 -61l-7 -24h-24l-37 37v703h-206v-655l2 -61l-37 -24h-24z" />
<glyph unicode="I" horiz-adv-x="198" d="M30 37v1377q0 61 48 61t48 -68v-1322l2 -61l-37 -24h-24z" />
<glyph unicode="J" horiz-adv-x="297" d="M30 22q125 189 125 364v124h1v904q0 61 48 61t48 -68v-983q-3 -161 -56.5 -291.5t-128.5 -135.5h-12z" />
<glyph unicode="K" horiz-adv-x="542" d="M30 22v1386q0 24 24 24h48q23 0 24 -12v-633q130 14 157 154q63 491 120 491h72l12 -12l-84 -371q-32 -230 -134 -297q104 -66 136 -298l84 -444l-12 -12h-72q-57 0 -120 564q-30 156 -132 156l-24 -108v-600l-12 -12h-48z" />
<glyph unicode="L" horiz-adv-x="437" d="M27 30q0 7 3 12v1372q0 61 48 61t48 -68v-1322l1 -24h244q27 0 27 -31q0 -30 -27 -30h-304l-1 1q-39 5 -39 29z" />
<glyph unicode="M" horiz-adv-x="839" d="M30 33v1284q0 62 192 115h24q72 -66 72 -115h12q51 93 98 105q27 10 49 10q166 0 200 -642q16 -255 82 -776v-2q0 -12 -13 -12h-83q-48 0 -86 994q-28 378 -138 378q-61 -52 -61 -170v-1169l-24 -33h-48l-24 33v1136q0 127 -60 197h-12q-84 0 -84 -164v-1169l-24 -33h-48 z" />
<glyph unicode="N" horiz-adv-x="600" d="M30 1332q87 70 150 91q27 9 49 9q166 0 200 -640q16 -252 82 -778v-2q0 -12 -13 -12h-83q-48 0 -86 994q-28 389 -149 389q-50 -45 -50 -153v-1197q0 -33 -26 -33h-70v1214z" />
<glyph unicode="O" horiz-adv-x="652" d="M30 591v176q0 569 251 665q7 1 13 1t12 -1q272 -76 272 -640v-13q0 -679 -273 -791h-11q-226 0 -264 603zM138 679q0 -522 131 -653q5 -2 17.5 -2t32.5 2q124 20 151 753q-38 597 -151 618h-25h-4q-133 0 -152 -605v-113z" />
<glyph unicode="P" horiz-adv-x="507" d="M30 0v1314q0 60 199 112q181 0 218 -236q0 -201 -218 -398q-75 -62 -103 -62v-719l-15 -11h-81zM126 799h28q175 138 175 399v49q0 106 -75 145h-62q-66 0 -66 -344v-249z" />
<glyph unicode="Q" horiz-adv-x="699" d="M30 591v176q0 569 251 665q7 1 13 1t12 -1q272 -76 272 -640v-13q0 -420 -104 -623q75 -79 75 -152v-16l-103 121q-58 -87 -141 -121h-11q-226 0 -264 603zM138 679q0 -522 131 -653q5 -2 17.5 -2t32.5 2q50 8 85 133l-35 41q-10 14 -10 23q0 6 3 9q4 6 10 6q7 0 14 -6 q16 -11 30 -23q40 189 54 570q-38 597 -151 618h-25h-4q-133 0 -152 -605v-113z" />
<glyph unicode="R" horiz-adv-x="606" d="M30 0v1314q0 60 199 112q181 0 218 -236q0 -201 -218 -398v-25q203 0 236 -572l60 -187l-12 -8h-25q-87 0 -97 95l-87 523q-76 112 -150 112h-28v-719l-15 -11h-81zM126 799h28q175 138 175 399v49q0 106 -75 145h-62q-66 0 -66 -344v-249z" />
<glyph unicode="S" horiz-adv-x="402" d="M30 1038v67q10 232 224 357h25l25 -25q-189 -60 -199 -269v-50q0 -113 164 -465q37 -113 37 -226q-78 -427 -201 -427h-12l-25 25q125 229 125 364v88q0 103 -81.5 302t-81.5 259z" />
<glyph unicode="T" d="M30 1451q0 31 73 31h294q29 0 29 -31q0 -30 -29 -30h-122q1 -7 1 -14v-1322l2 -61l-37 -24h-24l-37 37v1384h-84q-66 0 -66 30z" />
<glyph unicode="U" horiz-adv-x="460" d="M30 393v1017q0 44 48 44t48 -44v-1233q0 -52 26 -102t111 -50q29 -1 29 24v1360q0 45 48 45t48 -44v-1311q0 -111 -137 -111q-221 0 -221 405z" />
<glyph unicode="V" horiz-adv-x="542" d="M41 1404l38 25q72 0 72 -254v-21q16 -159 116 -1018q15 -46 31 0q88 480 150 1280h13l12 -12h13q-110 -1335 -203 -1395q-14 -12 -29 -12q-103 0 -213 1407z" />
<glyph unicode="W" horiz-adv-x="903" d="M41 1404l38 25q72 0 72 -254v-21q16 -159 116 -1018q11 -46 25 0q113 715 113 1052v26l-12 190l37 25q76 0 76 -494l113 -799q12 -46 25 0q88 480 150 1280h13l12 -12h13q-116 -1407 -213 -1407h-13q-75 0 -151 773l-12 38q-25 0 -101 -608q-23 -203 -88 -203 q-103 0 -213 1407z" />
<glyph unicode="X" horiz-adv-x="414" d="M-10 106l25 49q62 128 139 561q-1 48 -1 96v19q-56 318 -118 446l-25 49q23 55 50 106h12l64 -224l62 -231l63 231l54 224h22q27 -51 50 -106l-25 -49q-62 -128 -118 -446v-19q0 -48 -1 -96q77 -433 139 -561l25 -49q-23 -55 -50 -106h-12l-64 224l-82 369l-83 -369 l-64 -224h-12q-27 51 -50 106z" />
<glyph unicode="Y" horiz-adv-x="531" d="M30 1404l38 25q46 -12 72 -275q16 -159 116 -548q15 -46 31 0q88 480 150 810h13l12 -12h13q-89 -697 -165 -871v-458q0 -75 -35 -75h-24q-37 0 -37 75v410q-89 113 -184 919z" />
<glyph unicode="Z" horiz-adv-x="448" d="M30 33v16q0 365 240 1183l22 139h-202l-24 12v16q0 33 36 33h228l48 -33q0 -126 -192 -949l-36 -389h204l24 -22v-39h-324z" />
<glyph unicode="[" horiz-adv-x="569" />
<glyph unicode="\" horiz-adv-x="569" />
<glyph unicode="]" horiz-adv-x="569" />
<glyph unicode="^" horiz-adv-x="961" />
<glyph unicode="_" horiz-adv-x="1139" />
<glyph unicode="`" horiz-adv-x="439" d="M148 1447q0 9 5 17q11 14 30 14q14 0 27 -9l142 -268h-38l-154 218q-12 16 -12 28z" />
<glyph unicode="a" d="M30 276q0 222 288 444v96q0 141 -144 216l12 12h24q174 0 204 -264v-720q-54 -72 -156 -72h-24q-168 0 -204 288zM138 252q39 -216 144 -216l36 36v576h-24q-156 -177 -156 -396z" />
<glyph unicode="b" d="M30 112v1384q0 16 24 16h60q12 0 12 -8v-472q62 32 84 32q175 0 208 -324v-140q-20 -169 -72 -328q-109 -284 -204 -284h-8q-88 0 -104 124zM126 96q8 -60 36 -60q104 39 156 508l4 168q-20 316 -112 316l-16 4q-68 -37 -68 -92v-844z" />
<glyph unicode="c" horiz-adv-x="408" d="M30 590v25q0 362 301 440v-13q-213 -103 -213 -339v-125q0 -221 163 -578h-108q-84 0 -143 590z" />
<glyph unicode="d" horiz-adv-x="594" d="M30 348v48q0 387 288 648v405l24 24h36l36 -24v-1401q-75 -60 -120 -60h-72q-165 0 -192 360zM138 372q0 -348 144 -348q36 45 36 84v864q-180 -171 -180 -540v-60z" />
<glyph unicode="e" d="M30 660q0 312 216 384h24q99 0 132 -192q0 -180 -264 -408q54 -234 168 -432l-12 -12h-96q-168 246 -168 660zM126 516q120 72 180 324v36q-15 120 -48 120q-12 2 -21 2t-15 -2q-96 -66 -96 -276v-204z" />
<glyph unicode="f" horiz-adv-x="303" d="M-18 1009q0 31 11 31h37v171q30 264 204 264h24l12 -12q-144 -75 -144 -216v-207h72q4 0 4 -31q0 -30 -4 -30h-72v-904q0 -75 -42 -75q-54 0 -54 75v904h-38q-10 0 -10 30z" />
<glyph unicode="g" d="M35 738q0 185 176 302l201 -13h12v-38l-50 -12l13 -126q0 -146 -252 -452q1 -26 189 -176q63 -124 63 -225q0 -162 -151 -327l-13 13v13q88 121 88 238v63q0 154 -263 338v13q50 75 50 113zM123 713q19 -138 63 -138h12q101 103 101 213v164l-51 50q-125 -20 -125 -188 v-101z" />
<glyph unicode="h" horiz-adv-x="547" d="M30 54v1360q0 61 49 61q47 0 47 -61v-358q0 -37 18 -37h58q209 0 209 -540l59 -479h-59q-49 0 -49 160l-74 700q-41 121 -74 122h-37q-51 0 -51 -147v-786q2 -49 -48 -49q-48 2 -48 54z" />
<glyph unicode="i" horiz-adv-x="198" d="M30 28v1000q4 16 24 16h48q24 0 24 -24v-1004q0 -16 -13 -16h-55q-28 0 -28 28zM30 1324q9 60 52 60q52 0 52 -64q-9 -56 -56 -56q-31 0 -48 60z" />
<glyph unicode="j" horiz-adv-x="227" d="M-101 -406q138 66 138 502v873q0 75 48 75t48 -75v-848q0 -406 -221 -540h-13v13zM37 1302q17 58 50 63q51 -19 51 -38v-38l-38 -38z" />
<glyph unicode="k" horiz-adv-x="542" d="M30 24v1427q0 24 24 24h48q23 0 24 -12v-563h24q90 144 204 144l12 -12v-12q-192 -117 -192 -240q183 0 228 -324l84 -444l-12 -12h-72q-57 0 -120 564l-12 12q-18 144 -120 144l-24 -108v-600l-12 -12h-48z" />
<glyph unicode="l" horiz-adv-x="198" d="M30 37v1377q0 61 48 61t48 -68v-1322l2 -61l-37 -24h-24z" />
<glyph unicode="m" horiz-adv-x="804" d="M30 24v936q0 45 192 84h24q72 -48 72 -84h12q51 68 98 77q27 7 49 7q166 0 200 -468q16 -186 82 -566v-1q0 -9 -13 -9h-83q-48 0 -86 725q-28 275 -138 275q-61 -38 -61 -124v-852l-24 -24h-48l-24 24v828q0 93 -60 144h-12q-84 0 -84 -120v-852l-24 -24h-48z" />
<glyph unicode="n" horiz-adv-x="600" d="M30 982q87 52 150 67q27 7 49 7q166 0 200 -472q16 -186 82 -574v-1q0 -9 -13 -9h-83q-48 0 -86 733q-28 287 -149 287q-50 -33 -50 -113v-883q0 -24 -26 -24h-70v895z" />
<glyph unicode="o" horiz-adv-x="624" d="M30 398v174q0 388 199 460l37 13q200 0 220 -510v-50q0 -442 -232 -510h-13q-184 0 -211 423zM138 510q19 -498 128 -498h13q74 0 99 485v25q-25 486 -112 486h-37q-66 -12 -91 -498z" />
<glyph unicode="p" horiz-adv-x="507" d="M30 -368v1326q12 46 187 111q220 0 220 -398q0 -388 -311 -696v-356l-21 -25h-38zM126 62h12q191 183 191 572v124q-10 224 -88 262h-24q-63 0 -91 -50v-908z" />
<glyph unicode="q" horiz-adv-x="536" d="M30 671q0 398 220 398q175 -65 187 -111v-1326l-37 -38h-38l-21 25v356q-311 308 -311 696zM139 634q0 -389 190 -572h12v908q-28 50 -91 50h-24q-78 -38 -87 -262v-124z" />
<glyph unicode="r" horiz-adv-x="355" d="M30 75v758q0 102 261 222q27 0 27 -11q-192 -95 -192 -235v-734q0 -63 -46 -75q-50 12 -50 75z" />
<glyph unicode="s" horiz-adv-x="309" d="M30 829q0 128 126 213h25q-88 -90 -88 -150v-63l125 -352l26 -113v-50q-41 -314 -139 -314h-12l-38 13v25q101 144 101 314q0 72 -113 402z" />
<glyph unicode="t" horiz-adv-x="378" d="M30 983v61h94v150q0 47 38 75l57 -12v-213h101v-61h-101v-716q0 -190 71 -266l-78 -13q-88 0 -88 276v719h-94z" />
<glyph unicode="u" horiz-adv-x="507" d="M30 393v607q0 44 48 44t48 -44v-823q0 -52 26 -102t111 -50q29 -1 29 24v950q0 45 48 45t48 -44v-901q0 -111 -137 -111q-221 0 -221 405z" />
<glyph unicode="v" horiz-adv-x="454" d="M30 598v419q0 32 50 38l46 -38v-314q0 -452 92 -590q55 22 68 389v515l45 38h13l38 -38v-314q0 -446 -189 -703h-12l-113 289q-38 75 -38 309z" />
<glyph unicode="w" horiz-adv-x="734" d="M30 728v114q0 213 63 213l45 -13l-10 -251l-2 -163q21 -468 92 -515h26q62 201 62 829v75q0 32 51 38l45 -38v-314q0 -452 93 -590q55 22 67 389v515l46 38h12l38 -38v-314q0 -446 -188 -703h-13l-113 289h-13q-62 -210 -125 -276h-25q-151 254 -151 715z" />
<glyph unicode="x" horiz-adv-x="414" d="M-10 77l25 36q62 93 139 409q-1 35 -1 70v14q-56 232 -118 325l-25 36q23 40 50 77h12l64 -163l62 -169l63 169l54 163h22q27 -37 50 -77l-25 -36q-62 -93 -118 -325v-14q0 -35 -1 -70q77 -316 139 -409l25 -36q-23 -40 -50 -77h-12l-64 163l-82 269l-83 -269l-64 -163 h-12q-27 37 -50 77z" />
<glyph unicode="y" horiz-adv-x="600" d="M30 1010l37 24h13q62 0 62 -497q37 -522 112 -522h12q65 0 99 709q19 310 63 310h12l37 -37h13q-97 -1230 -174 -1230q-66 -128 -162 -175v25q137 146 137 361h-13q-223 0 -233 609z" />
<glyph unicode="z" horiz-adv-x="454" d="M30 24v12q0 266 240 862l22 85h-202l-24 25v12q0 24 36 24h228l48 -24q0 -92 -192 -692l-36 -267h204l24 -25v-36h-324z" />
<glyph unicode="{" horiz-adv-x="684" />
<glyph unicode="|" horiz-adv-x="532" />
<glyph unicode="}" horiz-adv-x="684" />
<glyph unicode="~" horiz-adv-x="1196" />
<glyph unicode="&#xa1;" horiz-adv-x="682" />
<glyph unicode="&#xa2;" horiz-adv-x="600" />
<glyph unicode="&#xa3;" horiz-adv-x="600" />
<glyph unicode="&#xa4;" horiz-adv-x="1139" />
<glyph unicode="&#xa5;" horiz-adv-x="227" />
<glyph unicode="&#xa6;" horiz-adv-x="532" />
<glyph unicode="&#xa7;" horiz-adv-x="891" />
<glyph unicode="&#xa8;" horiz-adv-x="402" d="M30 1324q9 60 52 60q52 0 52 -64q-9 -56 -56 -56q-31 0 -48 60zM240 1324q9 60 52 60q52 0 52 -64q-9 -56 -56 -56q-31 0 -48 60z" />
<glyph unicode="&#xa9;" horiz-adv-x="1509" />
<glyph unicode="&#xab;" horiz-adv-x="1139" />
<glyph unicode="&#xad;" horiz-adv-x="612" d="M128 723q0 31 14 31h280q6 0 6 -31q0 -30 -6 -30h-281q-13 0 -13 30z" />
<glyph unicode="&#xae;" horiz-adv-x="1509" />
<glyph unicode="&#xaf;" horiz-adv-x="1131" />
<glyph unicode="&#xb0;" horiz-adv-x="495" />
<glyph unicode="&#xb2;" horiz-adv-x="682" />
<glyph unicode="&#xb3;" horiz-adv-x="682" />
<glyph unicode="&#xb4;" horiz-adv-x="439" d="M148 1201l142 268q13 9 27 9q19 0 30 -14q5 -8 5 -17q0 -12 -12 -28l-154 -218h-38z" />
<glyph unicode="&#xb6;" horiz-adv-x="466" />
<glyph unicode="&#xb7;" horiz-adv-x="569" />
<glyph unicode="&#xb8;" horiz-adv-x="938" d="M256 -234q101 55 101 113q0 83 -49 121h75q34 -34 34 -103q0 -113 -88 -169h-38l-35 26v12z" />
<glyph unicode="&#xb9;" horiz-adv-x="682" />
<glyph unicode="&#xbb;" horiz-adv-x="1139" />
<glyph unicode="&#xbc;" horiz-adv-x="1708" />
<glyph unicode="&#xbd;" horiz-adv-x="1708" />
<glyph unicode="&#xbe;" horiz-adv-x="1708" />
<glyph unicode="&#xbf;" horiz-adv-x="1251" />
<glyph unicode="&#xc0;" horiz-adv-x="402" d="M27 65v983q3 161 57 292q38 93 87 122q21 12 33 12q11 0 33 -12q19 -29 58 -104q53 -149 56 -310v-983q0 -68 -18 -68q-48 0 -48 61v337h-162v-337q0 -61 -48 -61t-48 68zM84 1816q0 9 5 17q11 14 30 14q14 0 27 -9l142 -268h-38l-154 218q-12 16 -12 28zM123 456h162 v506h-1v124q0 140 -80 289q-80 -149 -80 -289v-124h-1v-506z" />
<glyph unicode="&#xc1;" horiz-adv-x="402" d="M27 65v983q3 161 57 292q38 93 87 122q21 12 33 12q11 0 33 -12q19 -29 58 -104q53 -149 56 -310v-983q0 -68 -18 -68q-48 0 -48 61v337h-162v-337q0 -61 -48 -61t-48 68zM102 1575l142 268q13 9 27 9q19 0 30 -14q5 -8 5 -17q0 -12 -12 -28l-154 -218h-38zM123 456h162 v506h-1v124q0 140 -80 289q-80 -149 -80 -289v-124h-1v-506z" />
<glyph unicode="&#xc2;" horiz-adv-x="402" d="M14 1601q0 12 12 28l154 218h42l154 -218q12 -16 12 -28q0 -9 -5 -17q-11 -14 -30 -14q-14 0 -27 9l-125 236l-125 -236q-13 -9 -27 -9q-19 0 -30 14q-5 8 -5 17zM27 65v983q3 161 57 292q38 93 87 122q21 12 33 12q11 0 33 -12q19 -29 58 -104q53 -149 56 -310v-983 q0 -68 -18 -68q-48 0 -48 61v337h-162v-337q0 -61 -48 -61t-48 68zM123 456h162v506h-1v124q0 140 -80 289q-80 -149 -80 -289v-124h-1v-506z" />
<glyph unicode="&#xc3;" horiz-adv-x="402" d="M22 1712h35q24 -79 64 -79q35 0 54 24q11 10 18 27q16 20 39 26q11 2 20 2q93 0 115 -120h-31q-18 78 -81 78q-27 0 -45 -26q-2 -4 -4 -7q-7 -12 -30 -29q-9 -6 -19 -9q-18 -7 -39 -7q-72 0 -96 120zM27 65v983q3 161 57 292q38 93 87 122q21 12 33 12q11 0 33 -12 q19 -29 58 -104q53 -149 56 -310v-983q0 -68 -18 -68q-48 0 -48 61v337h-162v-337q0 -61 -48 -61t-48 68zM123 456h162v506h-1v124q0 140 -80 289q-80 -149 -80 -289v-124h-1v-506z" />
<glyph unicode="&#xc4;" horiz-adv-x="402" d="M27 65v983q3 161 57 292q38 93 87 122q21 12 33 12q11 0 33 -12q19 -29 58 -104q53 -149 56 -310v-983q0 -68 -18 -68q-48 0 -48 61v337h-162v-337q0 -61 -48 -61t-48 68zM42 1652q9 60 52 60q52 0 52 -64q-9 -56 -56 -56q-31 0 -48 60zM123 456h162v506h-1v124 q0 140 -80 289q-80 -149 -80 -289v-124h-1v-506zM252 1658q9 60 52 60q52 0 52 -64q-9 -56 -56 -56q-31 0 -48 60z" />
<glyph unicode="&#xc5;" horiz-adv-x="402" d="M27 65v983q3 161 57 292q38 93 87 122q21 12 33 12q11 0 33 -12q19 -29 58 -104q53 -149 56 -310v-983q0 -68 -18 -68q-48 0 -48 61v337h-162v-337q0 -61 -48 -61t-48 68zM123 456h162v506h-1v124q0 140 -80 289q-80 -149 -80 -289v-124h-1v-506zM127 1676q0 84 73 84 t73 -90q0 -78 -79 -78q-67 0 -67 84zM158 1676q0 -50 39 -50q45 0 45 47q0 53 -42 53t-42 -50z" />
<glyph unicode="&#xc6;" horiz-adv-x="2048" />
<glyph unicode="&#xc7;" horiz-adv-x="507" d="M27 774q0 39 3 78q0 406 332 584h36l24 -24v-12l-12 -12q-166 -77 -212 -188q-72 -144 -72 -372q0 -358 240 -816l-12 -12h-4q34 -34 34 -103q0 -113 -88 -169h-38l-35 26v12q101 55 101 113q0 83 -49 121h-17q-144 170 -228 696q-3 39 -3 78z" />
<glyph unicode="&#xc8;" horiz-adv-x="507" d="M27 774q0 39 3 78q0 406 332 584h36l24 -24v-12l-12 -12q-166 -77 -212 -188q-59 -119 -70 -298h204v-60h-206v-14q0 -358 240 -816l-12 -12h-96q-144 170 -228 696q-3 39 -3 78zM190 1818q0 9 5 17q11 14 30 14q14 0 27 -9l142 -268h-38l-154 218q-12 16 -12 28z" />
<glyph unicode="&#xc9;" horiz-adv-x="507" d="M27 774q0 39 3 78q0 406 332 584h36l24 -24v-12l-12 -12q-166 -77 -212 -188q-59 -119 -70 -298h204v-60h-206v-14q0 -358 240 -816l-12 -12h-96q-144 170 -228 696q-3 39 -3 78zM243 1574l142 268q13 9 27 9q19 0 30 -14q5 -8 5 -17q0 -12 -12 -28l-154 -218h-38z" />
<glyph unicode="&#xca;" horiz-adv-x="507" d="M27 774q0 39 3 78q0 406 332 584h36l24 -24v-12l-12 -12q-166 -77 -212 -188q-59 -119 -70 -298h204v-60h-206v-14q0 -358 240 -816l-12 -12h-96q-144 170 -228 696q-3 39 -3 78zM74 1606q0 12 12 28l154 218h42l154 -218q12 -16 12 -28q0 -9 -5 -17q-11 -14 -30 -14 q-14 0 -27 9l-125 236l-125 -236q-13 -9 -27 -9q-19 0 -30 14q-5 8 -5 17z" />
<glyph unicode="&#xcb;" horiz-adv-x="507" d="M27 774q0 39 3 78q0 406 332 584h36l24 -24v-12l-12 -12q-166 -77 -212 -188q-59 -119 -70 -298h204v-60h-206v-14q0 -358 240 -816l-12 -12h-96q-144 170 -228 696q-3 39 -3 78zM122 1652q9 60 52 60q52 0 52 -64q-9 -56 -56 -56q-31 0 -48 60zM332 1652q9 60 52 60 q52 0 52 -64q-9 -56 -56 -56q-31 0 -48 60z" />
<glyph unicode="&#xcc;" horiz-adv-x="198" d="M-32 1847q0 9 5 17q11 14 30 14q14 0 27 -9l142 -268h-38l-154 218q-12 16 -12 28zM50 37v1377q0 61 48 61t48 -68v-1322l2 -61l-37 -24h-24z" />
<glyph unicode="&#xcd;" horiz-adv-x="198" d="M0 1574l142 268q13 9 27 9q19 0 30 -14q5 -8 5 -17q0 -12 -12 -28l-154 -218h-38zM50 37v1377q0 61 48 61t48 -68v-1322l2 -61l-37 -24h-24z" />
<glyph unicode="&#xce;" horiz-adv-x="198" d="M-108 1602q0 12 12 28l154 218h42l154 -218q12 -16 12 -28q0 -9 -5 -17q-11 -14 -30 -14q-14 0 -27 9l-125 236l-125 -236q-13 -9 -27 -9q-19 0 -30 14q-5 8 -5 17zM50 37v1377q0 61 48 61t48 -68v-1322l2 -61l-37 -24h-24z" />
<glyph unicode="&#xcf;" horiz-adv-x="198" d="M-88 1652q9 60 52 60q52 0 52 -64q-9 -56 -56 -56q-31 0 -48 60zM50 37v1377q0 61 48 61t48 -68v-1322l2 -61l-37 -24h-24zM122 1652q9 60 52 60q52 0 52 -64q-9 -56 -56 -56q-31 0 -48 60z" />
<glyph unicode="&#xd0;" horiz-adv-x="670" d="M8 723q0 31 14 31h68v540q0 94 201 138q226 0 276 -427v-163q0 -515 -377 -829l-75 -13l-25 38v655h-69q-13 0 -13 30zM186 63q263 245 263 779v125q-28 417 -188 417q-75 0 -75 -186v-444h116q6 0 6 -31q0 -30 -6 -30h-116v-630z" />
<glyph unicode="&#xd1;" horiz-adv-x="600" d="M10 1671h35q24 -82 64 -82q35 0 54 24q11 11 18 29q16 20 39 26q11 3 20 3q93 0 115 -125h-31q-18 82 -81 82q-27 0 -45 -28q-2 -4 -4 -7q-7 -12 -30 -30q-9 -6 -19 -10q-18 -7 -39 -7q-72 0 -96 125zM30 1332q87 70 150 91q27 9 49 9q166 0 200 -640q16 -252 82 -778v-2 q0 -12 -13 -12h-83q-48 0 -86 994q-28 389 -149 389q-50 -45 -50 -153v-1197q0 -33 -26 -33h-70v1214z" />
<glyph unicode="&#xd2;" horiz-adv-x="652" d="M30 591v176q0 569 251 665q7 1 13 1t12 -1q272 -76 272 -640v-13q0 -679 -273 -791h-11q-226 0 -264 603zM138 679q0 -522 131 -653q10 -5 50 0q124 20 151 753q-38 597 -151 618h-25q-137 10 -156 -605v-113zM180 1821q0 9 5 17q11 14 30 14q14 0 27 -9l142 -268h-38 l-154 218q-12 16 -12 28z" />
<glyph unicode="&#xd3;" horiz-adv-x="652" d="M30 591v176q0 569 251 665q7 1 13 1t12 -1q272 -76 272 -640v-13q0 -679 -273 -791h-11q-226 0 -264 603zM138 679q0 -522 131 -653q10 -5 50 0q124 20 151 753q-38 597 -151 618h-25q-137 10 -156 -605v-113zM263 1575l142 268q13 9 27 9q19 0 30 -14q5 -8 5 -17 q0 -12 -12 -28l-154 -218h-38z" />
<glyph unicode="&#xd4;" horiz-adv-x="652" d="M30 591v176q0 569 251 665q7 1 13 1t12 -1q272 -76 272 -640v-13q0 -679 -273 -791h-11q-226 0 -264 603zM103 1606q0 12 12 28l154 218h42l154 -218q12 -16 12 -28q0 -9 -5 -17q-11 -14 -30 -14q-14 0 -27 9l-125 236l-125 -236q-13 -9 -27 -9q-19 0 -30 14q-5 8 -5 17z M138 679q0 -522 131 -653q10 -5 50 0q124 20 151 753q-38 597 -151 618h-25q-137 10 -156 -605v-113z" />
<glyph unicode="&#xd5;" horiz-adv-x="652" d="M30 591v176q0 569 251 665q7 1 13 1t12 -1q272 -76 272 -640v-13q0 -679 -273 -791h-11q-226 0 -264 603zM128 1712h35q24 -79 64 -79q35 0 54 24q11 10 18 27q16 20 39 26q11 2 20 2q93 0 115 -120h-31q-18 78 -81 78q-27 0 -45 -26q-2 -4 -4 -7q-7 -12 -30 -29 q-9 -6 -19 -9q-18 -7 -39 -7q-72 0 -96 120zM138 679q0 -522 131 -653q10 -5 50 0q124 20 151 753q-38 597 -151 618h-25q-137 10 -156 -605v-113z" />
<glyph unicode="&#xd6;" horiz-adv-x="652" d="M30 591v176q0 569 251 665q7 1 13 1t12 -1q272 -76 272 -640v-13q0 -679 -273 -791h-11q-226 0 -264 603zM137 1652q9 60 52 60q52 0 52 -64q-9 -56 -56 -56q-31 0 -48 60zM138 679q0 -522 131 -653q10 -5 50 0q124 20 151 753q-38 597 -151 618h-25q-137 10 -156 -605 v-113zM347 1652q9 60 52 60q52 0 52 -64q-9 -56 -56 -56q-31 0 -48 60z" />
<glyph unicode="&#xd7;" horiz-adv-x="1196" />
<glyph unicode="&#xd8;" horiz-adv-x="1593" />
<glyph unicode="&#xd9;" horiz-adv-x="460" d="M30 393v1017q0 44 48 44t48 -44v-1233q0 -52 26 -102t111 -50q29 -1 29 24v1360q0 45 48 45t48 -44v-1311q0 -111 -137 -111q-221 0 -221 405zM130 1816q0 9 5 17q11 14 30 14q14 0 27 -9l142 -268h-38l-154 218q-12 16 -12 28z" />
<glyph unicode="&#xda;" horiz-adv-x="491" d="M30 393v1017q0 44 48 44t48 -44v-1233q0 -52 26 -102t111 -50q29 -1 29 24v1360q0 45 48 45t48 -44v-1311q0 -111 -137 -111q-221 0 -221 405zM173 1575l142 268q13 9 27 9q19 0 30 -14q5 -8 5 -17q0 -12 -12 -28l-154 -218h-38z" />
<glyph unicode="&#xdb;" horiz-adv-x="460" d="M30 393v1017q0 44 48 44t48 -44v-1233q0 -52 26 -102t111 -50q29 -1 29 24v1360q0 45 48 45t48 -44v-1311q0 -111 -137 -111q-221 0 -221 405zM33 1606q0 12 12 28l154 218h42l154 -218q12 -16 12 -28q0 -9 -5 -17q-11 -14 -30 -14q-14 0 -27 9l-125 236l-125 -236 q-13 -9 -27 -9q-19 0 -30 14q-5 8 -5 17z" />
<glyph unicode="&#xdc;" horiz-adv-x="460" d="M30 393v1017q0 44 48 44t48 -44v-1233q0 -52 26 -102t111 -50q29 -1 29 24v1360q0 45 48 45t48 -44v-1311q0 -111 -137 -111q-221 0 -221 405zM52 1652q9 60 52 60q52 0 52 -64q-9 -56 -56 -56q-31 0 -48 60zM262 1652q9 60 52 60q52 0 52 -64q-9 -56 -56 -56 q-31 0 -48 60z" />
<glyph unicode="&#xdd;" horiz-adv-x="531" d="M30 1404l38 25q46 -12 72 -275q16 -159 116 -548q15 -46 31 0q88 480 150 810h13l12 -12h13q-89 -697 -165 -871v-458q0 -75 -35 -75h-24q-37 0 -37 75v410q-89 113 -184 919zM129 1570l142 268q13 9 27 9q19 0 30 -14q5 -8 5 -17q0 -12 -12 -28l-154 -218h-38z" />
<glyph unicode="&#xdf;" horiz-adv-x="1251" />
<glyph unicode="&#xe0;" d="M33 276q0 222 288 444v96q0 141 -144 216l12 12h24q174 0 204 -264v-720q-54 -72 -156 -72h-24q-168 0 -204 288zM118 1447q0 9 5 17q11 14 30 14q14 0 27 -9l142 -268h-38l-154 218q-12 16 -12 28zM141 252q39 -216 144 -216l36 36v576h-24q-156 -177 -156 -396z" />
<glyph unicode="&#xe1;" d="M30 276q0 222 288 444v96q0 141 -144 216l12 12h24q174 0 204 -264v-720q-54 -72 -156 -72h-24q-168 0 -204 288zM93 1201l142 268q13 9 27 9q19 0 30 -14q5 -8 5 -17q0 -12 -12 -28l-154 -218h-38zM138 252q39 -216 144 -216l36 36v576h-24q-156 -177 -156 -396z" />
<glyph unicode="&#xe2;" d="M30 276q0 222 288 444v96q0 141 -144 216l12 12h24q174 0 204 -264v-720q-54 -72 -156 -72h-24q-168 0 -204 288zM45 1232q0 12 12 28l154 218h42l154 -218q12 -16 12 -28q0 -9 -5 -17q-11 -14 -30 -14q-14 0 -27 9l-125 236l-125 -236q-13 -9 -27 -9q-19 0 -30 14 q-5 8 -5 17zM138 252q39 -216 144 -216l36 36v576h-24q-156 -177 -156 -396z" />
<glyph unicode="&#xe3;" d="M30 276q0 222 288 444v96q0 141 -144 216l12 12h24q174 0 204 -264v-720q-54 -72 -156 -72h-24q-168 0 -204 288zM59 1283h35q24 -79 64 -79q35 0 54 24q11 10 18 27q16 20 39 26q11 2 20 2q93 0 115 -120h-31q-18 78 -81 78q-27 0 -45 -26q-2 -4 -4 -7q-7 -12 -30 -29 q-9 -6 -19 -9q-18 -7 -39 -7q-72 0 -96 120zM138 252q39 -216 144 -216l36 36v576h-24q-156 -177 -156 -396z" />
<glyph unicode="&#xe4;" d="M30 276q0 222 288 444v96q0 141 -144 216l12 12h24q174 0 204 -264v-720q-54 -72 -156 -72h-24q-168 0 -204 288zM87 1265q9 60 52 60q52 0 52 -64q-9 -56 -56 -56q-31 0 -48 60zM138 252q39 -216 144 -216l36 36v576h-24q-156 -177 -156 -396zM297 1265q9 60 52 60 q52 0 52 -64q-9 -56 -56 -56q-31 0 -48 60z" />
<glyph unicode="&#xe5;" d="M30 276q0 222 288 444v96q0 141 -144 216l12 12h24q174 0 204 -264v-720q-54 -72 -156 -72h-24q-168 0 -204 288zM138 252q39 -216 144 -216l36 36v576h-24q-156 -177 -156 -396zM158 1278q0 84 73 84t73 -90q0 -78 -79 -78q-67 0 -67 84zM189 1278q0 -50 39 -50 q45 0 45 47q0 53 -42 53t-42 -50z" />
<glyph unicode="&#xe6;" horiz-adv-x="1821" />
<glyph unicode="&#xe7;" horiz-adv-x="408" d="M30 590v25q0 362 301 440v-13q-213 -103 -213 -339v-125q0 -221 163 -578h-20q34 -34 34 -103q0 -113 -88 -169h-38l-35 26v12q101 55 101 113q0 83 -49 121h-13q-84 0 -143 590z" />
<glyph unicode="&#xe8;" d="M30 660q0 312 216 384h24q99 0 132 -192q0 -180 -264 -408q54 -234 168 -432l-12 -12h-96q-168 246 -168 660zM126 516q120 72 180 324v36q-15 120 -48 120q-25 4 -36 0q-96 -66 -96 -276v-204zM142 1447q0 9 5 17q11 14 30 14q14 0 27 -9l142 -268h-38l-154 218 q-12 16 -12 28z" />
<glyph unicode="&#xe9;" d="M30 660q0 312 216 384h24q99 0 132 -192q0 -180 -264 -408q54 -234 168 -432l-12 -12h-96q-168 246 -168 660zM126 516q120 72 180 324v36q-15 120 -48 120q-25 4 -36 0q-96 -66 -96 -276v-204zM218 1201l142 268q13 9 27 9q19 0 30 -14q5 -8 5 -17q0 -12 -12 -28 l-154 -218h-38z" />
<glyph unicode="&#xea;" d="M30 660q0 312 216 384h24q99 0 132 -192q0 -180 -264 -408q54 -234 168 -432l-12 -12h-96q-168 246 -168 660zM61 1232q0 12 12 28l154 218h42l154 -218q12 -16 12 -28q0 -9 -5 -17q-11 -14 -30 -14q-14 0 -27 9l-125 236l-125 -236q-13 -9 -27 -9q-19 0 -30 14 q-5 8 -5 17zM126 516q120 72 180 324v36q-15 120 -48 120q-25 4 -36 0q-96 -66 -96 -276v-204z" />
<glyph unicode="&#xeb;" d="M30 660q0 312 216 384h24q99 0 132 -192q0 -180 -264 -408q54 -234 168 -432l-12 -12h-96q-168 246 -168 660zM69 1260q9 60 52 60q52 0 52 -64q-9 -56 -56 -56q-31 0 -48 60zM126 516q120 72 180 324v36q-15 120 -48 120q-25 4 -36 0q-96 -66 -96 -276v-204zM279 1260 q9 60 52 60q52 0 52 -64q-9 -56 -56 -56q-31 0 -48 60z" />
<glyph unicode="&#xec;" horiz-adv-x="204" d="M-52 1447q0 9 6 17q10 14 29 14q14 0 27 -9l142 -268h-38l-154 218q-12 16 -12 28zM30 28v1000q4 16 24 16h48q24 0 24 -24v-1004q0 -16 -13 -16h-55q-28 0 -28 28z" />
<glyph unicode="&#xed;" horiz-adv-x="204" d="M-6 1201l142 268q13 9 27 9q19 0 30 -14q5 -8 5 -17q0 -12 -12 -28l-154 -218h-38zM30 28v1000q4 16 24 16h48q24 0 24 -24v-1004q0 -16 -13 -16h-55q-28 0 -28 28z" />
<glyph unicode="&#xee;" horiz-adv-x="204" d="M-36 1232q0 12 10 28l123 218h33l124 -218q9 -16 9 -28q0 -9 -4 -17q-9 -14 -24 -14q-11 0 -21 9l-100 236l-100 -236q-11 -9 -22 -9q-15 0 -24 14q-4 8 -4 17zM51 28v1000q4 16 24 16h48q24 0 24 -24v-1004q0 -16 -13 -16h-55q-28 0 -28 28z" />
<glyph unicode="&#xef;" horiz-adv-x="204" d="M-95 1266q9 60 52 60q52 0 52 -64q-9 -56 -56 -56q-31 0 -48 60zM30 28v1000q4 16 24 16h48q24 0 24 -24v-1004q0 -16 -13 -16h-55q-28 0 -28 28zM115 1266q9 60 52 60q52 0 52 -64q-9 -56 -56 -56q-31 0 -48 60z" />
<glyph unicode="&#xf0;" horiz-adv-x="1139" />
<glyph unicode="&#xf1;" horiz-adv-x="600" d="M-5 1307h35q24 -68 64 -68q35 0 54 20q11 9 18 24q16 17 39 22q11 2 20 2q93 0 115 -104h-31q-18 68 -81 68q-27 0 -45 -23l-4 -6q-7 -10 -30 -25q-9 -5 -19 -8q-18 -6 -39 -6q-72 0 -96 104zM30 982q87 52 150 67q27 7 49 7q166 0 200 -472q16 -186 82 -574v-1 q0 -9 -13 -9h-83q-48 0 -86 733q-28 287 -149 287q-50 -33 -50 -113v-883q0 -24 -26 -24h-70v895z" />
<glyph unicode="&#xf2;" horiz-adv-x="624" d="M30 398v174q0 388 199 460l37 13q200 0 220 -510v-50q0 -442 -232 -510h-13q-184 0 -211 423zM138 510q19 -498 128 -498h13q74 0 99 485v25q-25 486 -112 486h-37q-66 -12 -91 -498zM182 1447q0 9 5 17q11 14 30 14q14 0 27 -9l142 -268h-38l-154 218q-12 16 -12 28z " />
<glyph unicode="&#xf3;" horiz-adv-x="624" d="M30 398v174q0 388 199 460l37 13q200 0 220 -510v-50q0 -442 -232 -510h-13q-184 0 -211 423zM138 510q19 -498 128 -498h13q74 0 99 485v25q-25 486 -112 486h-37q-66 -12 -91 -498zM218 1201l142 268q13 9 27 9q19 0 30 -14q5 -8 5 -17q0 -12 -12 -28l-154 -218h-38z " />
<glyph unicode="&#xf4;" horiz-adv-x="624" d="M30 398v174q0 388 199 460l37 13q200 0 220 -510v-50q0 -442 -232 -510h-13q-184 0 -211 423zM53 1232q0 12 12 28l154 218h42l154 -218q12 -16 12 -28q0 -9 -5 -17q-11 -14 -30 -14q-14 0 -27 9l-125 236l-125 -236q-13 -9 -27 -9q-19 0 -30 14q-5 8 -5 17zM138 510 q19 -498 128 -498h13q74 0 99 485v25q-25 486 -112 486h-37q-66 -12 -91 -498z" />
<glyph unicode="&#xf5;" horiz-adv-x="624" d="M30 398v174q0 388 199 460l37 13q200 0 220 -510v-50q0 -442 -232 -510h-13q-184 0 -211 423zM66 1322h35q24 -82 64 -82q35 0 54 24q11 11 18 29q16 20 39 26q11 3 20 3q93 0 115 -125h-31q-18 82 -81 82q-27 0 -45 -28q-2 -4 -4 -7q-7 -12 -30 -30q-9 -6 -19 -10 q-18 -7 -39 -7q-72 0 -96 125zM138 510q19 -498 128 -498h13q74 0 99 485v25q-25 486 -112 486h-37q-66 -12 -91 -498z" />
<glyph unicode="&#xf6;" horiz-adv-x="624" d="M30 398v174q0 388 199 460l37 13q200 0 220 -510v-50q0 -442 -232 -510h-13q-184 0 -211 423zM89 1254q9 60 52 60q52 0 52 -64q-9 -56 -56 -56q-31 0 -48 60zM138 510q19 -498 128 -498h13q74 0 99 485v25q-25 486 -112 486h-37q-66 -12 -91 -498zM299 1254q9 60 52 60 q52 0 52 -64q-9 -56 -56 -56q-31 0 -48 60z" />
<glyph unicode="&#xf7;" horiz-adv-x="1124" />
<glyph unicode="&#xf8;" horiz-adv-x="1251" />
<glyph unicode="&#xf9;" horiz-adv-x="507" d="M30 393v607q0 44 48 44t48 -44v-823q0 -52 26 -102t111 -50q29 -1 29 24v950q0 45 48 45t48 -44v-901q0 -111 -137 -111q-221 0 -221 405zM125 1447q0 9 5 17q11 14 30 14q14 0 27 -9l142 -268h-38l-154 218q-12 16 -12 28z" />
<glyph unicode="&#xfa;" horiz-adv-x="507" d="M30 393v607q0 44 48 44t48 -44v-823q0 -52 26 -102t111 -50q29 -1 29 24v950q0 45 48 45t48 -44v-901q0 -111 -137 -111q-221 0 -221 405zM110 1201l142 268q13 9 27 9q19 0 30 -14q5 -8 5 -17q0 -12 -12 -28l-154 -218h-38z" />
<glyph unicode="&#xfb;" horiz-adv-x="507" d="M30 393v607q0 44 48 44t48 -44v-823q0 -52 26 -102t111 -50q29 -1 29 24v950q0 45 48 45t48 -44v-901q0 -111 -137 -111q-221 0 -221 405zM31 1232q0 12 12 28l154 218h42l154 -218q12 -16 12 -28q0 -9 -5 -17q-11 -14 -30 -14q-14 0 -27 9l-125 236l-125 -236 q-13 -9 -27 -9q-19 0 -30 14q-5 8 -5 17z" />
<glyph unicode="&#xfc;" horiz-adv-x="507" d="M30 393v607q0 44 48 44t48 -44v-823q0 -52 26 -102t111 -50q29 -1 29 24v950q0 45 48 45t48 -44v-901q0 -111 -137 -111q-221 0 -221 405zM48 1260q9 60 52 60q52 0 52 -64q-9 -56 -56 -56q-31 0 -48 60zM258 1260q9 60 52 60q52 0 52 -64q-9 -56 -56 -56q-31 0 -48 60z " />
<glyph unicode="&#xfd;" horiz-adv-x="600" d="M30 1010l37 24h13q62 0 62 -497q37 -522 112 -522h12q65 0 99 709q19 310 63 310h12l37 -37h13q-97 -1230 -174 -1230q-66 -128 -162 -175v25q137 146 137 361h-13q-223 0 -233 609zM112 1201l142 268q13 9 27 9q19 0 30 -14q5 -8 5 -17q0 -12 -12 -28l-154 -218h-38z " />
<glyph unicode="&#xff;" horiz-adv-x="600" d="M30 1010l37 24h13q62 0 62 -497q37 -522 112 -522h12q65 0 99 709q19 310 63 310h12l37 -37h13q-97 -1230 -174 -1230q-66 -128 -162 -175v25q137 146 137 361h-13q-223 0 -233 609zM111 1266q9 60 52 60q52 0 52 -64q-9 -56 -56 -56q-31 0 -48 60zM321 1266q9 60 52 60 q52 0 52 -64q-9 -56 -56 -56q-31 0 -48 60z" />
<glyph unicode="&#x152;" horiz-adv-x="2048" />
<glyph unicode="&#x153;" horiz-adv-x="1933" />
<glyph unicode="&#x178;" horiz-adv-x="531" d="M30 1404l38 25q46 -12 72 -275q16 -159 116 -548q15 -46 31 0q88 480 150 810h13l12 -12h13q-89 -697 -165 -871v-458q0 -75 -35 -75h-24q-37 0 -37 75v410q-89 113 -184 919zM134 1652q9 60 52 60q52 0 52 -64q-9 -56 -56 -56q-31 0 -48 60zM344 1652q9 60 52 60 q52 0 52 -64q-9 -56 -56 -56q-31 0 -48 60z" />
<glyph unicode="&#x2c6;" horiz-adv-x="606" d="M148 1232q0 12 12 28l154 218h42l154 -218q12 -16 12 -28q0 -9 -5 -17q-11 -14 -30 -14q-14 0 -27 9l-125 236l-125 -236q-13 -9 -27 -9q-19 0 -30 14q-5 8 -5 17z" />
<glyph unicode="&#x2dc;" horiz-adv-x="402" d="M35 1469h35q24 -79 64 -79q35 0 54 24q11 10 18 27q16 20 39 26q11 2 20 2q93 0 115 -120h-31q-18 78 -81 78q-27 0 -45 -26q-2 -4 -4 -7q-7 -12 -30 -29q-9 -6 -19 -9q-18 -7 -39 -7q-72 0 -96 120z" />
<glyph unicode="&#x2000;" horiz-adv-x="939" />
<glyph unicode="&#x2001;" horiz-adv-x="1878" />
<glyph unicode="&#x2002;" horiz-adv-x="939" />
<glyph unicode="&#x2003;" horiz-adv-x="1878" />
<glyph unicode="&#x2004;" horiz-adv-x="626" />
<glyph unicode="&#x2005;" horiz-adv-x="469" />
<glyph unicode="&#x2006;" horiz-adv-x="313" />
<glyph unicode="&#x2007;" horiz-adv-x="313" />
<glyph unicode="&#x2008;" horiz-adv-x="234" />
<glyph unicode="&#x2009;" horiz-adv-x="375" />
<glyph unicode="&#x200a;" horiz-adv-x="104" />
<glyph unicode="&#x2010;" horiz-adv-x="612" d="M128 723q0 31 14 31h280q6 0 6 -31q0 -30 -6 -30h-281q-13 0 -13 30z" />
<glyph unicode="&#x2011;" horiz-adv-x="612" d="M128 723q0 31 14 31h280q6 0 6 -31q0 -30 -6 -30h-281q-13 0 -13 30z" />
<glyph unicode="&#x2012;" horiz-adv-x="612" d="M128 723q0 31 14 31h280q6 0 6 -31q0 -30 -6 -30h-281q-13 0 -13 30z" />
<glyph unicode="&#x2013;" horiz-adv-x="705" d="M128 723q0 31 22 31h449q10 0 10 -31q0 -30 -10 -30h-450q-21 0 -21 30z" />
<glyph unicode="&#x2014;" horiz-adv-x="1002" d="M128 723q0 31 34 31h680q15 0 15 -31q0 -30 -15 -30h-682q-32 0 -32 30z" />
<glyph unicode="&#x2018;" horiz-adv-x="402" d="M98 1447q0 9 5 17q11 14 30 14q14 0 27 -9l142 -268h-38l-154 218q-12 16 -12 28z" />
<glyph unicode="&#x2019;" horiz-adv-x="402" d="M98 1201l142 268q13 9 27 9q19 0 30 -14q5 -8 5 -17q0 -12 -12 -28l-154 -218h-38z" />
<glyph unicode="&#x201a;" horiz-adv-x="439" d="M84 -214l142 268q13 9 27 9q19 0 30 -14q5 -8 5 -17q0 -12 -12 -28l-154 -218h-38z" />
<glyph unicode="&#x201c;" horiz-adv-x="600" d="M98 1447q0 9 5 17q11 14 30 14q14 0 27 -9l142 -268h-38l-154 218q-12 16 -12 28zM288 1447q0 9 5 17q11 14 30 14q14 0 27 -9l142 -268h-38l-154 218q-12 16 -12 28z" />
<glyph unicode="&#x201d;" horiz-adv-x="600" d="M98 1201l142 268q13 9 27 9q19 0 30 -14q5 -8 5 -17q0 -12 -12 -28l-154 -218h-38zM288 1201l142 268q13 9 27 9q19 0 30 -14q5 -8 5 -17q0 -12 -12 -28l-154 -218h-38z" />
<glyph unicode="&#x201e;" horiz-adv-x="600" d="M84 -214l142 268q13 9 27 9q19 0 30 -14q5 -8 5 -17q0 -12 -12 -28l-154 -218h-38zM264 -214l142 268q13 9 27 9q19 0 30 -14q5 -8 5 -17q0 -12 -12 -28l-154 -218h-38z" />
<glyph unicode="&#x2022;" horiz-adv-x="717" />
<glyph unicode="&#x2026;" horiz-adv-x="2048" />
<glyph unicode="&#x202f;" horiz-adv-x="375" />
<glyph unicode="&#x2039;" horiz-adv-x="682" />
<glyph unicode="&#x203a;" horiz-adv-x="682" />
<glyph unicode="&#x205f;" horiz-adv-x="469" />
<glyph unicode="&#x20ac;" horiz-adv-x="1139" />
<glyph unicode="&#x2122;" horiz-adv-x="798" d="M140 1534v30h47v75q0 24 19 38l29 -6v-107h50v-30h-50v-358q0 -95 35 -133l-39 -7q-44 0 -44 138v360h-47zM325 1054v468q0 23 96 42h12q36 -24 36 -42h6q32 42 60 42h12q102 0 114 -408l24 -108l-6 -6h-30q-42 0 -42 228q-19 260 -66 276q-42 -10 -42 -66v-426l-12 -12 h-24l-12 12v414q0 47 -30 72h-6q-42 0 -42 -60v-426l-12 -12h-24z" />
<glyph unicode="&#xe000;" horiz-adv-x="1045" d="M0 0v1045h1045v-1045h-1045z" />
</font>
</defs>
</svg>
