<?xml version="1.0" standalone="no"?>
<!DOCTYPE svg PUBLIC "-//W3C//DTD SVG 1.1//EN" "http://www.w3.org/Graphics/SVG/1.1/DTD/svg11.dtd" >
<svg xmlns="http://www.w3.org/2000/svg">
<metadata></metadata>
<defs>
<font id="monikabold" horiz-adv-x="1139" >
<font-face units-per-em="2048" ascent="1638" descent="-410" />
<missing-glyph horiz-adv-x="569" />
<glyph horiz-adv-x="2048" />
<glyph horiz-adv-x="2048" />
<glyph unicode="&#xd;" horiz-adv-x="569" />
<glyph unicode=" "  horiz-adv-x="569" />
<glyph unicode="&#x09;" horiz-adv-x="569" />
<glyph unicode="&#xa0;" horiz-adv-x="569" />
<glyph unicode="!" horiz-adv-x="353" d="M43 13v37q0 46 96 59l67 -51v-45q0 -31 -73 -59q-90 24 -90 59zM50 1332q0 120 75 120t75 -120l-36 -1101h-78z" />
<glyph unicode="&#x22;" horiz-adv-x="663" d="M98 1181l159 300q25 17 48 17q33 0 52 -24q8 -13 8 -27q0 -17 -15 -38l-162 -228h-90zM288 1181l159 300q25 17 48 17q33 0 52 -24q8 -13 8 -27q0 -17 -15 -38l-162 -228h-90z" />
<glyph unicode="#" />
<glyph unicode="$" />
<glyph unicode="%" horiz-adv-x="1821" />
<glyph unicode="&#x26;" horiz-adv-x="1366" />
<glyph unicode="'" horiz-adv-x="502" d="M148 1181l159 300q25 17 48 17q33 0 52 -24q8 -13 8 -27q0 -17 -15 -38l-162 -228h-90z" />
<glyph unicode="(" horiz-adv-x="682" />
<glyph unicode=")" horiz-adv-x="682" />
<glyph unicode="*" horiz-adv-x="797" />
<glyph unicode="+" horiz-adv-x="1196" />
<glyph unicode="," horiz-adv-x="502" d="M84 -234l159 300q25 17 48 17q33 0 52 -24q8 -13 8 -27q0 -17 -15 -37l-162 -229h-90z" />
<glyph unicode="-" horiz-adv-x="662" d="M128 723q0 51 39 51h280q31 0 31 -51q0 -50 -31 -50h-281q-38 0 -38 50z" />
<glyph unicode="." horiz-adv-x="341" d="M82 11q12 81 77 81q77 0 77 -85q-12 -75 -81 -75q-51 0 -73 79z" />
<glyph unicode="/" horiz-adv-x="569" />
<glyph unicode="0" />
<glyph unicode="1" />
<glyph unicode="2" />
<glyph unicode="3" />
<glyph unicode="4" />
<glyph unicode="5" />
<glyph unicode="6" />
<glyph unicode="7" />
<glyph unicode="8" />
<glyph unicode="9" />
<glyph unicode=":" horiz-adv-x="341" d="M82 11q12 81 77 81q77 0 77 -85q-12 -75 -81 -75q-51 0 -73 79zM82 671q12 81 77 81q77 0 77 -85q-12 -75 -81 -75q-51 0 -73 79z" />
<glyph unicode=";" horiz-adv-x="569" />
<glyph unicode="&#x3c;" horiz-adv-x="1196" />
<glyph unicode="=" horiz-adv-x="248" d="M1701 286q0 51 93 51h1356q52 0 52 -51q0 -50 -52 -50h-1363q-86 0 -86 50z" />
<glyph unicode="&#x3e;" horiz-adv-x="1196" />
<glyph unicode="?" horiz-adv-x="353" d="M43 13v37q0 46 96 59l67 -51v-45q0 -31 -73 -59q-90 24 -90 59zM43 1382v56q251 -92 251 -247q-126 -493 -126 -688v-190l-16 -82h-69l-27 309l87 679q0 103 -100 163z" />
<glyph unicode="@" horiz-adv-x="2079" />
<glyph unicode="A" horiz-adv-x="452" d="M27 65v983q3 164 58 298q41 99 97 132q27 16 47 16q18 0 52 -18q23 -35 63 -112q54 -152 57 -316v-983q0 -88 -43 -88q-73 0 -73 81v317h-112v-317q0 -81 -73 -81t-73 88zM173 476h112v466h-1v144q0 136 -55 239q-55 -103 -55 -239v-144h-1v-466z" />
<glyph unicode="B" horiz-adv-x="510" d="M30 30v1265q0 117 221 157q166 0 190 -218q0 -172 -158 -341q159 -68 194 -147q34 -60 36 -149q-10 -361 -358 -617h-75zM176 89q190 103 190 533q0 191 -190 191v-724zM176 897q128 112 128 324v74q0 57 -45 80q-82 -1 -83 -129v-349z" />
<glyph unicode="C" horiz-adv-x="557" d="M27 774q0 40 3 79q0 416 350 603h55l37 -37v-26l-21 -20q-161 -75 -204 -180q-71 -141 -71 -365q0 -354 244 -819l-29 -29h-121q-155 183 -240 714q-3 40 -3 80z" />
<glyph unicode="D" horiz-adv-x="644" d="M30 33v1261q0 109 223 158q252 0 304 -446v-164q0 -523 -389 -847l-101 -17zM176 117q213 198 213 725v124q-27 398 -163 398q-50 0 -50 -166v-1081z" />
<glyph unicode="E" horiz-adv-x="557" d="M27 774q0 40 3 79q0 416 350 603h55l37 -37v-26l-21 -20q-161 -75 -204 -180q-58 -116 -68 -271h203v-100h-206q0 -348 244 -813l-29 -29h-121q-155 183 -240 714q-3 40 -3 80z" />
<glyph unicode="F" horiz-adv-x="434" d="M28 1439q0 51 39 51h5q10 5 31 5q20 0 30 -5h214q31 0 31 -51q0 -50 -31 -50h-171v-347h103q52 0 52 -51q0 -50 -52 -50h-103v-856l2 -70l-53 -35h-45l-50 50v1388q-2 7 -2 21z" />
<glyph unicode="G" horiz-adv-x="704" d="M30 591v176q0 582 269 684q12 2 20 2t18 -2q132 -36 216 -198h-146q-36 118 -66 124h-23h-3q-109 0 -127 -585v-113q0 -515 123 -638l29 5q74 12 109 400h-41q-86 0 -86 50q0 51 93 51h146q49 0 51 -26h4q-51 -459 -280 -553h-17q-250 0 -289 623z" />
<glyph unicode="H" horiz-adv-x="557" d="M30 30v1384q0 81 73 81t73 -88v-586h156v593q0 81 73 81q43 0 43 -88v-1322l2 -63l-12 -42h-56l-50 50v690h-156v-635l2 -70l-53 -35h-45z" />
<glyph unicode="I" horiz-adv-x="248" d="M30 30v1384q0 81 73 81t73 -88v-1322l2 -70l-53 -35h-45z" />
<glyph unicode="J" horiz-adv-x="352" d="M30 20q130 196 130 366v144h1v884q0 81 73 81t73 -88v-983q-3 -164 -59.5 -302t-149.5 -145h-25z" />
<glyph unicode="K" horiz-adv-x="593" d="M30 12v1396q0 44 49 44h48q46 0 49 -31v-611q83 9 107 133q65 509 145 509h84l27 -27l-86 -379q-33 -237 -119 -294q88 -56 121 -296l85 -452l-26 -26h-84q-80 0 -145 582q-26 138 -86 138l-20 -90v-605l-25 -25h-68z" />
<glyph unicode="L" horiz-adv-x="487" d="M27 30q0 11 3 16v1368q0 81 73 81t73 -88v-1326h220q52 0 52 -51q0 -50 -52 -50h-316l-2 3q-51 6 -51 47z" />
<glyph unicode="M" horiz-adv-x="889" d="M30 28v1289q0 76 213 135h39q56 -51 75 -84q41 61 87 73q31 11 58 11q190 0 225 -661q16 -255 82 -776v-3q0 -32 -38 -32h-83q-72 0 -111 1013q-27 359 -102 359q-47 -40 -47 -150v-1174l-35 -48h-76l-35 48v1141q0 121 -48 177q-58 -1 -58 -144v-1174l-35 -48h-76z" />
<glyph unicode="N" horiz-adv-x="650" d="M30 1340q98 79 167 102q30 10 57 10q190 0 225 -659q16 -252 82 -778v-3q0 -32 -38 -32h-83q-72 0 -111 1013q-27 370 -113 370q-36 -32 -36 -133v-1197q0 -53 -51 -53h-95v1234z" />
<glyph unicode="O" horiz-adv-x="702" d="M30 591v176q0 582 269 684q12 2 20 2t18 -2q291 -81 291 -659v-13q0 -691 -292 -811h-17q-250 0 -289 623zM188 679q0 -515 123 -638q8 1 29 5q104 16 130 733q-37 581 -129 598h-23h-3q-109 0 -127 -585v-113z" />
<glyph unicode="P" horiz-adv-x="557" d="M30 -20v1334q0 74 220 132q207 0 247 -255q0 -209 -225 -413q-83 -68 -96 -68v-708l-30 -22h-116zM176 825q153 120 153 373v49q0 95 -57 125h-55q-41 0 -41 -324v-223z" />
<glyph unicode="Q" horiz-adv-x="749" d="M30 591v176q0 582 269 684q12 2 20 2t18 -2q291 -81 291 -659v-13q0 -424 -101 -620q72 -75 72 -155v-80l-125 147q-43 -64 -138 -103h-17q-250 0 -289 623zM188 679q0 -515 123 -638q8 1 29 5q33 5 62 109l-29 35q-14 19 -14 33q0 13 7 20q10 15 31 15q18 0 31 -12 q16 -11 -3 6q31 148 45 527q-37 581 -129 598h-23h-3q-109 0 -127 -585v-113z" />
<glyph unicode="R" horiz-adv-x="659" d="M30 -20v1334q0 74 220 132q207 0 247 -255q0 -208 -216 -404q200 -3 234 -589l63 -197l-31 -21h-34q-110 0 -122 113l-86 519q-67 98 -126 98h-3v-708l-30 -22h-116zM176 825q153 120 153 373v49q0 95 -57 125h-55q-41 0 -41 -324v-223z" />
<glyph unicode="S" horiz-adv-x="465" d="M30 1038v67q10 242 241 377h45l53 -54q-205 -65 -214 -260v-50q0 -110 163 -459q38 -117 38 -233q-81 -446 -226 -446h-24l-42 42q129 236 129 367v88q0 100 -81.5 299t-81.5 262z" />
<glyph unicode="T" horiz-adv-x="551" d="M30 1451q0 51 98 51h294q54 0 54 -51q0 -50 -54 -50h-94q-2 14 -2 6v-1322l2 -70l-53 -35h-45l-50 50v1371h-59q-91 0 -91 50z" />
<glyph unicode="U" horiz-adv-x="510" d="M30 393v1017q0 64 73 64t73 -64v-1233q0 -48 22 -90t91 -42q3 0 3 4v1360q0 65 73 65t73 -64v-1311q0 -131 -162 -131q-246 0 -246 425z" />
<glyph unicode="V" horiz-adv-x="594" d="M41 1413l55 36q106 0 106 -278v-16q15 -152 108 -951q81 468 141 1232h48l12 -12h28q-113 -1365 -213 -1429q-20 -18 -46 -18q-126 0 -239 1436z" />
<glyph unicode="W" horiz-adv-x="955" d="M41 1413l55 36q106 0 106 -278v-16q15 -149 105 -924q99 643 99 957v26l-13 199l54 36q110 0 110 -513l102 -719q79 466 138 1219h48l12 -12h28q-120 -1447 -240 -1447h-13q-98 0 -176 790l-3 11v-9q0 -88 -60 -571q-25 -221 -113 -221q-126 0 -239 1436z" />
<glyph unicode="X" horiz-adv-x="467" d="M-10 107l28 55q61 126 137 555q-1 47 -1 95v18q-55 314 -116 440l-28 55q26 63 60 127h48l68 -240l38 -141l38 141l58 240h59q34 -64 61 -127l-29 -55q-61 -126 -116 -440v-18q0 -48 -1 -95q76 -429 137 -555l29 -55q-27 -63 -61 -127h-48l-69 240l-57 260l-58 -260 l-69 -240h-48q-34 64 -60 127z" />
<glyph unicode="Y" horiz-adv-x="585" d="M30 1413l59 38q75 -19 102 -296q15 -149 105 -504q83 453 145 785h47l12 -12h29q-92 -721 -168 -894v-455q0 -95 -60 -95h-24q-62 0 -62 95v404q-88 113 -185 934z" />
<glyph unicode="Z" horiz-adv-x="498" d="M30 28v21q0 367 240 1186l19 116h-181l-42 21v27q0 53 61 53h237l64 -44q0 -137 -192 -960l-34 -367h188l38 -35v-66h-363z" />
<glyph unicode="[" horiz-adv-x="569" />
<glyph unicode="\" horiz-adv-x="569" />
<glyph unicode="]" horiz-adv-x="569" />
<glyph unicode="^" horiz-adv-x="961" />
<glyph unicode="_" />
<glyph unicode="`" horiz-adv-x="502" d="M148 1447q0 14 8 27q19 24 52 24q23 0 48 -17l159 -300h-90l-162 228q-15 21 -15 38z" />
<glyph unicode="a" horiz-adv-x="551" d="M30 275q0 231 288 453v88q0 130 -156 211l37 37h36q197 0 229 -283v-726q-65 -87 -181 -87h-24q-191 0 -229 307zM188 253q36 -197 107 -197l23 23v533q-130 -158 -130 -359z" />
<glyph unicode="b" horiz-adv-x="551" d="M30 111v1385q0 36 49 36h60q37 0 37 -28v-435q30 15 59 15q198 0 233 -343v-142q-20 -171 -73 -332q-115 -299 -228 -299h-8q-111 0 -129 143zM176 97q5 -41 6 -41q85 32 136 489l4 167q-19 296 -91 296l-8 2q-47 -25 -47 -70v-843z" />
<glyph unicode="c" horiz-adv-x="458" d="M30 589v26q0 377 351 467v-51q-213 -103 -213 -328v-125q0 -218 174 -598h-144q-107 0 -168 609z" />
<glyph unicode="d" horiz-adv-x="644" d="M30 347v49q0 394 288 655v405l37 37h57l52 -35v-1418q-90 -72 -145 -72h-72q-189 0 -217 379zM188 372q0 -328 105 -328q25 31 25 64v809q-130 -123 -130 -485v-60z" />
<glyph unicode="e" horiz-adv-x="551" d="M30 660q0 325 236 404h29q121 0 157 -211q0 -189 -262 -415q51 -222 170 -429l-29 -29h-123q-178 261 -178 680zM176 556q72 43 130 286v33q-13 101 -25 101q-20 3 -21 3q-84 -58 -84 -259v-164z" />
<glyph unicode="f" horiz-adv-x="365" d="M-18 1009q0 51 36 51h12v152q32 283 229 283h36l37 -37q-156 -81 -156 -211v-187h47q29 0 29 -51q0 -50 -29 -50h-47v-884q0 -95 -67 -95q-79 0 -79 95v884h-13q-35 0 -35 50z" />
<glyph unicode="g" horiz-adv-x="551" d="M35 736q0 196 193 325l210 -14h36v-73l-48 -11l11 -111q0 -153 -252 -459q1 -12 185 -159q67 -131 67 -236q0 -168 -175 -359l-39 39v25q88 121 88 232v63q0 145 -263 329v27q50 75 50 106zM173 714q16 -119 38 -119q88 90 88 193v157l-36 35q-90 -14 -90 -166v-100z" />
<glyph unicode="h" horiz-adv-x="600" d="M30 54v1360q0 81 74 81q72 0 72 -81v-375h51q234 0 234 -559l62 -500h-87q-74 0 -74 179l-74 698q-35 105 -49 105h-37q-26 0 -26 -127v-786v-5q0 -64 -74 -64q-72 4 -72 74z" />
<glyph unicode="i" horiz-adv-x="248" d="M30 28v1002q9 34 49 34h48q49 0 49 -44v-1004q0 -36 -38 -36h-55q-53 0 -53 48zM30 1323q12 81 77 81q77 0 77 -85q-12 -75 -81 -75q-51 0 -73 79z" />
<glyph unicode="j" horiz-adv-x="277" d="M-101 -394q138 66 138 490v873q0 95 73 95t73 -95v-848q0 -415 -237 -560h-47v45zM35 1296q23 81 80 90q73 -27 73 -59v-45l-61 -61z" />
<glyph unicode="k" horiz-adv-x="593" d="M30 15v1436q0 44 49 44h48q46 0 49 -31v-520q86 120 215 120l25 -25v-29q-192 -117 -192 -210q180 0 228 -342l85 -452l-26 -26h-84q-80 0 -144 576l-12 12q-17 132 -75 132l-20 -90v-605l-25 -25h-69z" />
<glyph unicode="l" horiz-adv-x="248" d="M30 30v1384q0 81 73 81t73 -88v-1322l2 -70l-53 -35h-45z" />
<glyph unicode="m" horiz-adv-x="854" d="M30 17v943q0 61 214 104h36q58 -39 78 -63q42 47 88 55q30 8 56 8q190 0 225 -487q16 -185 82 -566v-2q0 -29 -38 -29h-83q-72 0 -111 744q-26 256 -105 256q-44 -28 -44 -104v-859l-37 -37h-72l-37 37v835q0 85 -46 124h-1q-59 0 -59 -100v-859l-37 -37h-72z" />
<glyph unicode="n" horiz-adv-x="650" d="M30 992q101 60 168 76q30 8 56 8q190 0 225 -491q16 -185 82 -574v-2q0 -29 -38 -29h-83q-72 0 -111 752q-26 268 -115 268q-34 -22 -34 -93v-883q0 -44 -51 -44h-95v915z" />
<glyph unicode="o" horiz-adv-x="674" d="M30 398v174q0 401 214 478l42 15q229 0 250 -530v-50q0 -456 -253 -530h-17q-208 0 -236 443zM188 510q18 -478 103 -478h13q50 0 74 465v25q-24 466 -87 466h-34q-45 -8 -69 -478z" />
<glyph unicode="p" horiz-adv-x="557" d="M30 -374v1334q15 58 207 129q250 0 250 -418q0 -395 -311 -702v-355l-33 -40h-63zM176 107q153 172 153 527v124q-10 213 -70 242h-17q-47 0 -66 -34v-859z" />
<glyph unicode="q" horiz-adv-x="586" d="M30 671q0 418 250 418q192 -71 207 -129v-1334l-50 -52h-63l-33 40v355q-311 307 -311 702zM189 634q0 -354 152 -526v858q-19 34 -66 34h-17q-60 -29 -69 -242v-124z" />
<glyph unicode="r" horiz-adv-x="405" d="M30 75v758q0 113 280 242q58 0 58 -42q-192 -95 -192 -224v-734q0 -77 -71 -95q-75 18 -75 95z" />
<glyph unicode="s" horiz-adv-x="359" d="M30 828q0 138 142 234h85q-114 -117 -114 -170v-60l124 -351l27 -115v-53q-43 -333 -164 -333h-17l-58 20v43q101 144 101 309q0 69 -113 398z" />
<glyph unicode="t" horiz-adv-x="428" d="M30 963v101h94v130q0 56 56 97l89 -19v-208h101v-101h-101v-696q0 -184 89 -279l-119 -20q-115 0 -115 296v699h-94z" />
<glyph unicode="u" horiz-adv-x="557" d="M30 393v607q0 64 73 64t73 -64v-823q0 -48 22 -90t91 -42q3 0 3 4v950q0 65 73 65t73 -64v-901q0 -131 -162 -131q-246 0 -246 425z" />
<glyph unicode="v" horiz-adv-x="504" d="M30 598v419q0 49 84 59l62 -51v-322q0 -447 78 -564q19 8 32 363v523l59 50h36l51 -51v-321q0 -451 -200 -723h-44l-119 303q-39 77 -39 315z" />
<glyph unicode="w" horiz-adv-x="784" d="M30 728v114q0 233 92 233l67 -19l-11 -265l-2 -163q21 -448 74 -493q56 184 56 807v75q0 49 85 59l61 -51v-322q0 -447 78 -564q20 8 32 363v523l61 50h34l51 -51v-321q0 -451 -199 -723h-45l-99 253q-55 -170 -122 -240h-53q-160 270 -160 735z" />
<glyph unicode="x" horiz-adv-x="470" d="M-10 78l31 44q59 91 135 402q-1 33 -1 68v12q-55 228 -115 318l-30 44q28 50 63 98h44l70 -177l38 -105l39 104l59 178h55q35 -48 64 -98l-31 -44q-60 -90 -115 -318v-12q0 -35 -1 -68q76 -311 136 -402l31 -44q-29 -50 -64 -98h-44l-70 178l-58 190l-59 -190l-70 -178 h-44q-35 48 -63 98z" />
<glyph unicode="y" horiz-adv-x="652" d="M30 1019l15 -432q10 -629 258 -629h-12q0 -188 -137 -334v-67q141 69 204 190q83 0 184 1270h-28l-37 37h-24q-68 0 -88 -329q-33 -690 -74 -690h-12q-51 0 -87 503q0 516 -87 516h-22z" />
<glyph unicode="z" horiz-adv-x="504" d="M30 17v19q0 269 241 867l15 60h-183l-37 38v19q0 44 61 44h235l66 -33q0 -105 -192 -706l-33 -244h188l37 -38v-63h-361z" />
<glyph unicode="{" horiz-adv-x="684" />
<glyph unicode="|" horiz-adv-x="532" />
<glyph unicode="}" horiz-adv-x="684" />
<glyph unicode="~" horiz-adv-x="1196" />
<glyph unicode="&#xa1;" horiz-adv-x="682" />
<glyph unicode="&#xa2;" horiz-adv-x="600" />
<glyph unicode="&#xa3;" horiz-adv-x="600" />
<glyph unicode="&#xa4;" />
<glyph unicode="&#xa5;" horiz-adv-x="227" />
<glyph unicode="&#xa6;" horiz-adv-x="532" />
<glyph unicode="&#xa7;" horiz-adv-x="891" />
<glyph unicode="&#xa8;" horiz-adv-x="452" d="M30 1323q12 81 77 81q77 0 77 -85q-12 -75 -81 -75q-51 0 -73 79zM240 1323q12 81 77 81q77 0 77 -85q-12 -75 -81 -75q-51 0 -73 79z" />
<glyph unicode="&#xa9;" horiz-adv-x="1509" />
<glyph unicode="&#xab;" />
<glyph unicode="&#xad;" horiz-adv-x="662" d="M128 723q0 51 39 51h280q31 0 31 -51q0 -50 -31 -50h-281q-38 0 -38 50z" />
<glyph unicode="&#xae;" horiz-adv-x="1509" />
<glyph unicode="&#xaf;" horiz-adv-x="1131" />
<glyph unicode="&#xb0;" horiz-adv-x="495" />
<glyph unicode="&#xb2;" horiz-adv-x="682" />
<glyph unicode="&#xb3;" horiz-adv-x="682" />
<glyph unicode="&#xb4;" horiz-adv-x="502" d="M148 1181l159 300q25 17 48 17q33 0 52 -24q8 -13 8 -27q0 -17 -15 -38l-162 -228h-90z" />
<glyph unicode="&#xb6;" horiz-adv-x="466" />
<glyph unicode="&#xb7;" horiz-adv-x="569" />
<glyph unicode="&#xb8;" horiz-adv-x="988" d="M256 -223q101 55 101 102q0 75 -85 141h148q47 -47 47 -123q0 -122 -104 -189h-57l-50 38v31z" />
<glyph unicode="&#xb9;" horiz-adv-x="682" />
<glyph unicode="&#xbb;" />
<glyph unicode="&#xbc;" horiz-adv-x="1708" />
<glyph unicode="&#xbd;" horiz-adv-x="1708" />
<glyph unicode="&#xbe;" horiz-adv-x="1708" />
<glyph unicode="&#xbf;" horiz-adv-x="1251" />
<glyph unicode="&#xc0;" horiz-adv-x="452" d="M27 65v983q3 164 58 298q41 99 97 132q27 16 47 16q18 0 52 -18q23 -35 63 -112q54 -152 57 -316v-983q0 -88 -43 -88q-73 0 -73 81v317h-112v-317q0 -81 -73 -81t-73 88zM84 1816q0 14 8 27q19 24 52 24q23 0 48 -17l159 -300h-90l-162 228q-15 21 -15 38zM173 476h112 v466h-1v144q0 136 -55 239q-55 -103 -55 -239v-144h-1v-466z" />
<glyph unicode="&#xc1;" horiz-adv-x="452" d="M27 65v983q3 164 58 298q41 99 97 132q27 16 47 16q18 0 52 -18q23 -35 63 -112q54 -152 57 -316v-983q0 -88 -43 -88q-73 0 -73 81v317h-112v-317q0 -81 -73 -81t-73 88zM89 1555l159 300q25 17 48 17q33 0 52 -24q8 -13 8 -27q0 -17 -15 -38l-162 -228h-90zM173 476 h112v466h-1v144q0 136 -55 239q-55 -103 -55 -239v-144h-1v-466z" />
<glyph unicode="&#xc2;" horiz-adv-x="452" d="M14 1601q0 17 15 38l162 228h70l162 -228q15 -21 15 -38q0 -14 -8 -27q-19 -24 -52 -24q-23 0 -48 17l-104 197l-104 -197q-25 -17 -48 -17q-33 0 -51 24q-9 13 -9 27zM27 65v983q3 164 58 298q41 99 97 132q27 16 47 16q18 0 52 -18q23 -35 63 -112q54 -152 57 -316 v-983q0 -88 -43 -88q-73 0 -73 81v317h-112v-317q0 -81 -73 -81t-73 88zM173 476h112v466h-1v144q0 136 -55 239q-55 -103 -55 -239v-144h-1v-466z" />
<glyph unicode="&#xc3;" horiz-adv-x="460" d="M22 1732h84q24 -79 44 -79q21 0 34 16q9 8 15 23q23 29 56 37q14 3 26 3q115 0 144 -160h-81q-18 78 -60 78q-12 0 -22 -14q-2 -4 -5 -8q-8 -15 -36 -35q-13 -9 -25 -12q-22 -9 -49 -9q-93 0 -125 160zM31 65v983q3 164 58 298q41 99 97 132q27 16 47 16q18 0 52 -18 q23 -35 63 -112q54 -152 57 -316v-983q0 -88 -43 -88q-73 0 -73 81v317h-112v-317q0 -81 -73 -81t-73 88zM177 476h112v466h-1v144q0 136 -55 239q-55 -103 -55 -239v-144h-1v-466z" />
<glyph unicode="&#xc4;" horiz-adv-x="452" d="M27 65v983q3 164 58 298q41 99 97 132q27 16 47 16q18 0 52 -18q23 -35 63 -112q54 -152 57 -316v-983q0 -88 -43 -88q-73 0 -73 81v317h-112v-317q0 -81 -73 -81t-73 88zM42 1651q12 81 77 81q77 0 77 -85q-12 -75 -81 -75q-51 0 -73 79zM173 476h112v466h-1v144 q0 136 -55 239q-55 -103 -55 -239v-144h-1v-466zM252 1657q12 81 77 81q77 0 77 -85q-12 -75 -81 -75q-51 0 -73 79z" />
<glyph unicode="&#xc5;" horiz-adv-x="452" d="M27 65v983q3 164 58 298q41 99 97 132q27 16 47 16q18 0 52 -18q23 -35 63 -112q54 -152 57 -316v-983q0 -88 -43 -88q-73 0 -73 81v317h-112v-317q0 -81 -73 -81t-73 88zM127 1676q0 104 98 104t98 -110q0 -98 -104 -98q-92 0 -92 104zM173 476h112v466h-1v144 q0 136 -55 239q-55 -103 -55 -239v-144h-1v-466zM208 1676q0 -30 14 -30q20 0 20 27q0 33 -17 33t-17 -30z" />
<glyph unicode="&#xc6;" horiz-adv-x="2048" />
<glyph unicode="&#xc7;" horiz-adv-x="557" d="M27 774q0 40 3 79q0 416 350 603h55l37 -37v-26l-21 -20q-161 -75 -204 -180q-71 -141 -71 -365q0 -354 244 -819l-29 -29h36q7 -7 7 -83q0 -122 -104 -189h-57l-50 38v31q101 55 101 102q0 75 -34 101h-20q-155 183 -240 714q-3 40 -3 80z" />
<glyph unicode="&#xc8;" horiz-adv-x="557" d="M27 774q0 40 3 79q0 416 350 603h55l37 -37v-26l-21 -20q-161 -75 -204 -180q-58 -116 -68 -271h203v-100h-206v6q0 -354 244 -819l-29 -29h-121q-155 183 -240 714q-3 40 -3 80zM190 1818q0 14 8 27q19 24 52 24q23 0 48 -17l159 -300h-90l-162 228q-15 21 -15 38z" />
<glyph unicode="&#xc9;" horiz-adv-x="557" d="M27 774q0 40 3 79q0 416 350 603h55l37 -37v-26l-21 -20q-161 -75 -204 -180q-58 -116 -68 -271h203v-100h-206v6q0 -354 244 -819l-29 -29h-121q-155 183 -240 714q-3 40 -3 80zM230 1554l159 300q25 17 48 17q33 0 52 -24q8 -13 8 -27q0 -17 -15 -38l-162 -228h-90z " />
<glyph unicode="&#xca;" horiz-adv-x="557" d="M27 774q0 40 3 79q0 416 350 603h55l37 -37v-26l-21 -20q-161 -75 -204 -180q-58 -116 -68 -271h203v-100h-206v6q0 -354 244 -819l-29 -29h-121q-155 183 -240 714q-3 40 -3 80zM74 1606q0 17 15 38l162 228h70l162 -228q15 -21 15 -38q0 -14 -8 -27q-19 -24 -52 -24 q-23 0 -48 17l-104 197l-104 -197q-25 -17 -48 -17q-33 0 -52 24q-8 13 -8 27z" />
<glyph unicode="&#xcb;" horiz-adv-x="557" d="M27 774q0 40 3 79q0 416 350 603h55l37 -37v-26l-21 -20q-161 -75 -204 -180q-58 -116 -68 -271h203v-100h-206v6q0 -354 244 -819l-29 -29h-121q-155 183 -240 714q-3 40 -3 80zM122 1651q12 81 77 81q77 0 77 -85q-12 -75 -81 -75q-51 0 -73 79zM332 1651q12 81 77 81 q77 0 77 -85q-12 -75 -81 -75q-51 0 -73 79z" />
<glyph unicode="&#xcc;" horiz-adv-x="261" d="M-32 1847q0 14 9 27q19 24 51 24q23 0 48 -17l159 -300h-90l-161 228q-16 21 -16 38zM50 30v1384q0 81 73 81t73 -88v-1322l2 -70l-53 -35h-45z" />
<glyph unicode="&#xcd;" horiz-adv-x="261" d="M0 1554l158 300q25 17 48 17q33 0 52 -24q8 -13 8 -27q0 -17 -15 -38l-162 -228h-89zM62 30v1384q0 81 73 81t73 -88v-1322l2 -70l-53 -35h-45z" />
<glyph unicode="&#xce;" horiz-adv-x="248" d="M-108 1602q0 17 16 38l161 228h70l162 -228q15 -21 15 -38q0 -14 -8 -27q-19 -24 -52 -24q-23 0 -48 17l-104 197l-104 -197q-24 -17 -48 -17q-32 0 -51 24q-9 13 -9 27zM50 30v1384q0 81 73 81t73 -88v-1322l2 -70l-53 -35h-45z" />
<glyph unicode="&#xcf;" horiz-adv-x="248" d="M-88 1651q12 81 77 81q77 0 77 -85q-12 -75 -81 -75q-50 0 -73 79zM50 30v1384q0 81 73 81t73 -88v-1322l2 -70l-53 -35h-45zM122 1651q12 81 77 81q77 0 77 -85q-12 -75 -81 -75q-51 0 -73 79z" />
<glyph unicode="&#xd0;" horiz-adv-x="720" d="M8 723q0 51 39 51h43v520q0 109 223 158q252 0 304 -446v-164q0 -523 -389 -847l-101 -17l-37 55v640h-44q-38 0 -38 50zM236 117q213 198 213 725v124q-27 398 -163 398q-50 0 -50 -166v-424h91q31 0 31 -51q0 -50 -31 -50h-91v-556z" />
<glyph unicode="&#xd1;" horiz-adv-x="654" d="M10 1691h84q24 -82 44 -82q21 0 34 15q9 9 15 26q23 29 54 37q15 4 28 4q115 0 144 -165h-81q-18 82 -60 82q-12 0 -22 -16q-2 -4 -5 -8q-8 -15 -35 -36q-12 -8 -25 -13q-23 -9 -50 -9q-93 0 -125 165zM34 1340q98 79 167 102q30 10 57 10q190 0 225 -659 q16 -252 82 -778v-3q0 -32 -38 -32h-83q-72 0 -111 1013q-27 370 -113 370q-36 -32 -36 -133v-1197q0 -53 -51 -53h-95v1234z" />
<glyph unicode="&#xd2;" horiz-adv-x="702" d="M30 591v176q0 582 269 684q12 2 20 2t18 -2q291 -81 291 -659v-13q0 -691 -292 -811h-17q-250 0 -289 623zM180 1821q0 14 8 27q19 24 52 24q23 0 48 -17l159 -300h-90l-162 228q-15 21 -15 38zM188 679q0 -515 123 -638q-2 1 29 5q104 16 130 733q-37 581 -129 598h-23 q-112 8 -130 -585v-113z" />
<glyph unicode="&#xd3;" horiz-adv-x="702" d="M30 591v176q0 582 269 684q12 2 20 2t18 -2q291 -81 291 -659v-13q0 -691 -292 -811h-17q-250 0 -289 623zM188 679q0 -515 123 -638q-2 1 29 5q104 16 130 733q-37 581 -129 598h-23q-112 8 -130 -585v-113zM250 1555l159 300q25 17 48 17q33 0 52 -24q8 -13 8 -27 q0 -17 -15 -38l-162 -228h-90z" />
<glyph unicode="&#xd4;" horiz-adv-x="702" d="M30 591v176q0 582 269 684q12 2 20 2t18 -2q291 -81 291 -659v-13q0 -691 -292 -811h-17q-250 0 -289 623zM103 1606q0 17 15 38l162 228h70l162 -228q15 -21 15 -38q0 -14 -8 -27q-19 -24 -52 -24q-23 0 -48 17l-104 197l-104 -197q-25 -17 -48 -17q-33 0 -52 24 q-8 13 -8 27zM188 679q0 -515 123 -638q-2 1 29 5q104 16 130 733q-37 581 -129 598h-23q-112 8 -130 -585v-113z" />
<glyph unicode="&#xd5;" horiz-adv-x="702" d="M30 591v176q0 582 269 684q12 2 20 2t18 -2q291 -81 291 -659v-13q0 -691 -292 -811h-17q-250 0 -289 623zM124 1732h84q24 -79 44 -79q21 0 34 16q9 8 15 23q23 29 56 37q14 3 26 3q115 0 144 -160h-81q-18 78 -60 78q-12 0 -22 -14q-2 -4 -5 -8q-8 -15 -36 -35 q-13 -9 -25 -12q-22 -9 -49 -9q-93 0 -125 160zM188 679q0 -515 123 -638q-2 1 29 5q104 16 130 733q-37 581 -129 598h-23q-112 8 -130 -585v-113z" />
<glyph unicode="&#xd6;" horiz-adv-x="702" d="M30 591v176q0 582 269 684q12 2 20 2t18 -2q291 -81 291 -659v-13q0 -691 -292 -811h-17q-250 0 -289 623zM137 1651q12 81 77 81q77 0 77 -85q-12 -75 -81 -75q-51 0 -73 79zM188 679q0 -515 123 -638q-2 1 29 5q104 16 130 733q-37 581 -129 598h-23q-112 8 -130 -585 v-113zM347 1651q12 81 77 81q77 0 77 -85q-12 -75 -81 -75q-51 0 -73 79z" />
<glyph unicode="&#xd7;" horiz-adv-x="1196" />
<glyph unicode="&#xd8;" horiz-adv-x="1593" />
<glyph unicode="&#xd9;" horiz-adv-x="510" d="M30 393v1017q0 64 73 64t73 -64v-1233q0 -48 22 -90t91 -42q3 0 3 4v1360q0 65 73 65t73 -64v-1311q0 -131 -162 -131q-246 0 -246 425zM130 1816q0 14 8 27q19 24 52 24q23 0 48 -17l159 -300h-90l-162 228q-15 21 -15 38z" />
<glyph unicode="&#xda;" horiz-adv-x="541" d="M30 393v1017q0 64 73 64t73 -64v-1233q0 -48 22 -90t91 -42q3 0 3 4v1360q0 65 73 65t73 -64v-1311q0 -131 -162 -131q-246 0 -246 425zM160 1555l159 300q25 17 48 17q33 0 52 -24q8 -13 8 -27q0 -17 -15 -38l-162 -228h-90z" />
<glyph unicode="&#xdb;" horiz-adv-x="510" d="M30 393v1017q0 64 73 64t73 -64v-1233q0 -48 22 -90t91 -42q3 0 3 4v1360q0 65 73 65t73 -64v-1311q0 -131 -162 -131q-246 0 -246 425zM33 1606q0 17 15 38l162 228h70l162 -228q15 -21 15 -38q0 -14 -8 -27q-19 -24 -52 -24q-23 0 -48 17l-104 197l-104 -197 q-25 -17 -48 -17q-33 0 -52 24q-8 13 -8 27z" />
<glyph unicode="&#xdc;" horiz-adv-x="510" d="M30 393v1017q0 64 73 64t73 -64v-1233q0 -48 22 -90t91 -42q3 0 3 4v1360q0 65 73 65t73 -64v-1311q0 -131 -162 -131q-246 0 -246 425zM52 1651q12 81 77 81q77 0 77 -85q-12 -75 -81 -75q-51 0 -73 79zM262 1651q12 81 77 81q77 0 77 -85q-12 -75 -81 -75q-51 0 -73 79 z" />
<glyph unicode="&#xdd;" horiz-adv-x="585" d="M30 1413l59 38q75 -19 102 -296q16 -157 115 -545q-8 27 -18 0q88 479 153 826h47l12 -12h29q-92 -721 -168 -894v-455q0 -95 -60 -95h-24q-62 0 -62 95v404q-88 113 -185 934zM117 1550l159 300q25 17 48 17q33 0 52 -24q8 -13 8 -27q0 -17 -15 -38l-162 -228h-90z" />
<glyph unicode="&#xdf;" horiz-adv-x="1251" />
<glyph unicode="&#xe0;" horiz-adv-x="551" d="M33 275q0 231 288 453v88q0 130 -156 211l37 37h36q197 0 229 -283v-726q-65 -87 -181 -87h-24q-191 0 -229 307zM118 1447q0 14 8 27q19 24 52 24q23 0 48 -17l159 -300h-90l-162 228q-15 21 -15 38zM191 253q36 -197 107 -197l23 23v549h14q-144 -163 -144 -375z" />
<glyph unicode="&#xe1;" horiz-adv-x="551" d="M30 275q0 231 288 453v88q0 130 -156 211l37 37h36q197 0 229 -283v-726q-65 -87 -181 -87h-24q-191 0 -229 307zM80 1181l159 300q25 17 48 17q33 0 52 -24q8 -13 8 -27q0 -17 -15 -38l-162 -228h-90zM188 253q36 -197 107 -197l23 23v549h14q-144 -163 -144 -375z" />
<glyph unicode="&#xe2;" horiz-adv-x="551" d="M30 275q0 231 288 453v88q0 130 -156 211l37 37h36q197 0 229 -283v-726q-65 -87 -181 -87h-24q-191 0 -229 307zM45 1232q0 17 15 38l162 228h70l162 -228q15 -21 15 -38q0 -14 -8 -27q-19 -24 -52 -24q-23 0 -48 17l-104 197l-104 -197q-25 -17 -48 -17q-33 0 -52 24 q-8 13 -8 27zM188 253q36 -197 107 -197l23 23v549h14q-144 -163 -144 -375z" />
<glyph unicode="&#xe3;" horiz-adv-x="551" d="M30 275q0 231 288 453v88q0 130 -156 211l37 37h36q197 0 229 -283v-726q-65 -87 -181 -87h-24q-191 0 -229 307zM55 1303h84q24 -79 44 -79q21 0 34 16q9 8 15 23q23 29 56 37q14 3 26 3q115 0 144 -160h-81q-18 78 -60 78q-12 0 -22 -14q-2 -4 -5 -8q-8 -15 -36 -35 q-13 -9 -25 -12q-22 -9 -49 -9q-93 0 -125 160zM188 253q36 -197 107 -197l23 23v549h14q-144 -163 -144 -375z" />
<glyph unicode="&#xe4;" horiz-adv-x="551" d="M30 275q0 231 288 453v88q0 130 -156 211l37 37h36q197 0 229 -283v-726q-65 -87 -181 -87h-24q-191 0 -229 307zM87 1264q12 81 77 81q77 0 77 -85q-12 -75 -81 -75q-51 0 -73 79zM188 253q36 -197 107 -197l23 23v549h14q-144 -163 -144 -375zM297 1264q12 81 77 81 q77 0 77 -85q-12 -75 -81 -75q-51 0 -73 79z" />
<glyph unicode="&#xe5;" horiz-adv-x="551" d="M30 275q0 231 288 453v88q0 130 -156 211l37 37h36q197 0 229 -283v-726q-65 -87 -181 -87h-24q-191 0 -229 307zM158 1278q0 104 98 104t98 -110q0 -98 -104 -98q-92 0 -92 104zM188 253q36 -197 107 -197l23 23v549h14q-144 -163 -144 -375zM239 1278q0 -30 14 -30 q20 0 20 27q0 33 -17 33t-17 -30z" />
<glyph unicode="&#xe6;" horiz-adv-x="1821" />
<glyph unicode="&#xe7;" horiz-adv-x="458" d="M30 589v26q0 377 351 467v-51q-213 -103 -213 -328v-125q0 -218 174 -598h-4q7 -7 7 -83q0 -122 -104 -189h-57l-50 38v31q101 55 101 102q0 75 -34 101h-3q-107 0 -168 609z" />
<glyph unicode="&#xe8;" horiz-adv-x="551" d="M30 660q0 325 236 404h29q121 0 157 -211q0 -189 -262 -415q51 -222 170 -429l-29 -29h-123q-178 261 -178 680zM142 1447q0 14 8 27q19 24 52 24q23 0 48 -17l159 -300h-90l-162 228q-15 21 -15 38zM176 556q72 43 130 286v33q-13 101 -25 101q-20 3 -21 3 q-84 -58 -84 -259v-164z" />
<glyph unicode="&#xe9;" horiz-adv-x="551" d="M30 660q0 325 236 404h29q121 0 157 -211q0 -189 -262 -415q51 -222 170 -429l-29 -29h-123q-178 261 -178 680zM176 556q72 43 130 286v33q-13 101 -25 101q-20 3 -21 3q-84 -58 -84 -259v-164zM205 1181l159 300q25 17 48 17q33 0 52 -24q8 -13 8 -27q0 -17 -15 -38 l-162 -228h-90z" />
<glyph unicode="&#xea;" horiz-adv-x="551" d="M30 660q0 325 236 404h29q121 0 157 -211q0 -189 -262 -415q51 -222 170 -429l-29 -29h-123q-178 261 -178 680zM61 1232q0 17 15 38l162 228h70l162 -228q15 -21 15 -38q0 -14 -8 -27q-19 -24 -52 -24q-23 0 -48 17l-104 197l-104 -197q-25 -17 -48 -17q-33 0 -52 24 q-8 13 -8 27zM176 556q72 43 130 286v33q-13 101 -25 101q-20 3 -21 3q-84 -58 -84 -259v-164z" />
<glyph unicode="&#xeb;" horiz-adv-x="551" d="M30 660q0 325 236 404h29q121 0 157 -211q0 -189 -262 -415q51 -222 170 -429l-29 -29h-123q-178 261 -178 680zM69 1259q12 81 77 81q77 0 77 -85q-12 -75 -81 -75q-51 0 -73 79zM176 556q72 43 130 286v33q-13 101 -25 101q-20 3 -21 3q-84 -58 -84 -259v-164z M279 1259q12 81 77 81q77 0 77 -85q-12 -75 -81 -75q-51 0 -73 79z" />
<glyph unicode="&#xec;" horiz-adv-x="267" d="M-52 1447q0 14 10 27q17 24 50 24q23 0 48 -17l159 -300h-90l-161 228q-16 21 -16 38zM30 28v1002q9 34 49 34h48q49 0 49 -44v-1004q0 -36 -38 -36h-55q-53 0 -53 48z" />
<glyph unicode="&#xed;" horiz-adv-x="267" d="M-6 1181l158 300q25 17 48 17q33 0 52 -24q8 -13 8 -27q0 -17 -15 -38l-162 -228h-89zM42 28v1002q9 34 49 34h48q49 0 49 -44v-1004q0 -36 -38 -36h-55q-53 0 -53 48z" />
<glyph unicode="&#xee;" horiz-adv-x="254" d="M-36 1232q0 17 13 36l129 230h65l131 -230q11 -20 11 -36q0 -13 -6 -25q-17 -26 -47 -26q-22 0 -43 19l-78 184l-78 -185q-23 -18 -44 -18q-30 0 -46 26q-7 12 -7 25zM51 28v1002q9 34 49 34h48q49 0 49 -44v-1004q0 -36 -38 -36h-55q-53 0 -53 48z" />
<glyph unicode="&#xef;" horiz-adv-x="254" d="M-95 1265q12 81 77 81q77 0 77 -85q-12 -75 -81 -75q-50 0 -73 79zM30 28v1002q9 34 49 34h48q49 0 49 -44v-1004q0 -36 -38 -36h-55q-53 0 -53 48zM115 1265q12 81 77 81q77 0 77 -85q-12 -75 -81 -75q-51 0 -73 79z" />
<glyph unicode="&#xf0;" />
<glyph unicode="&#xf1;" horiz-adv-x="655" d="M-5 1327h84q24 -68 45 -68q23 0 35 13q8 7 15 20q23 26 55 32q14 3 26 3q114 0 145 -144h-81q-18 68 -61 68q-13 0 -23 -13q-3 -4 -4 -5q-10 -14 -37 -32q-13 -7 -25 -11q-22 -7 -48 -7q-92 0 -126 144zM35 992q101 60 168 76q30 8 56 8q190 0 225 -491q16 -185 82 -574 v-2q0 -29 -38 -29h-83q-72 0 -111 752q-26 268 -115 268q-34 -22 -34 -93v-883q0 -44 -51 -44h-95v915z" />
<glyph unicode="&#xf2;" horiz-adv-x="674" d="M30 398v174q0 401 214 478l42 15q229 0 250 -530v-50q0 -456 -253 -530h-17q-208 0 -236 443zM182 1447q0 14 8 27q19 24 52 24q23 0 48 -17l159 -300h-90l-162 228q-15 21 -15 38zM188 510q18 -478 103 -478h13q50 0 74 465v25q-24 466 -87 466h-34q-45 -8 -69 -478z " />
<glyph unicode="&#xf3;" horiz-adv-x="674" d="M30 398v174q0 401 214 478l42 15q229 0 250 -530v-50q0 -456 -253 -530h-17q-208 0 -236 443zM188 510q18 -478 103 -478h13q50 0 74 465v25q-24 466 -87 466h-34q-45 -8 -69 -478zM205 1181l159 300q25 17 48 17q33 0 52 -24q8 -13 8 -27q0 -17 -15 -38l-162 -228h-90z " />
<glyph unicode="&#xf4;" horiz-adv-x="674" d="M30 398v174q0 401 214 478l42 15q229 0 250 -530v-50q0 -456 -253 -530h-17q-208 0 -236 443zM53 1232q0 17 15 38l162 228h70l162 -228q15 -21 15 -38q0 -14 -8 -27q-19 -24 -52 -24q-23 0 -48 17l-104 197l-104 -197q-25 -17 -48 -17q-33 0 -52 24q-8 13 -8 27z M188 510q18 -478 103 -478h13q50 0 74 465v25q-24 466 -87 466h-34q-45 -8 -69 -478z" />
<glyph unicode="&#xf5;" horiz-adv-x="674" d="M30 398v174q0 401 214 478l42 15q229 0 250 -530v-50q0 -456 -253 -530h-17q-208 0 -236 443zM62 1342h84q24 -82 44 -82q21 0 34 15q9 9 15 26q23 29 54 37q15 4 28 4q115 0 144 -165h-81q-18 82 -60 82q-12 0 -22 -16q-2 -4 -5 -8q-8 -15 -35 -36q-12 -8 -25 -13 q-23 -9 -50 -9q-93 0 -125 165zM188 510q18 -478 103 -478h13q50 0 74 465v25q-24 466 -87 466h-34q-45 -8 -69 -478z" />
<glyph unicode="&#xf6;" horiz-adv-x="674" d="M30 398v174q0 401 214 478l42 15q229 0 250 -530v-50q0 -456 -253 -530h-17q-208 0 -236 443zM89 1253q12 81 77 81q77 0 77 -85q-12 -75 -81 -75q-51 0 -73 79zM188 510q18 -478 103 -478h13q50 0 74 465v25q-24 466 -87 466h-34q-45 -8 -69 -478zM299 1253q12 81 77 81 q77 0 77 -85q-12 -75 -81 -75q-51 0 -73 79z" />
<glyph unicode="&#xf7;" horiz-adv-x="1124" />
<glyph unicode="&#xf8;" horiz-adv-x="1251" />
<glyph unicode="&#xf9;" horiz-adv-x="557" d="M30 393v607q0 64 73 64t73 -64v-823q0 -48 22 -90t91 -42q3 0 3 4v950q0 65 73 65t73 -64v-901q0 -131 -162 -131q-246 0 -246 425zM125 1447q0 14 8 27q19 24 52 24q23 0 48 -17l159 -300h-90l-162 228q-15 21 -15 38z" />
<glyph unicode="&#xfa;" horiz-adv-x="557" d="M30 393v607q0 64 73 64t73 -64v-823q0 -48 22 -90t91 -42q3 0 3 4v950q0 65 73 65t73 -64v-901q0 -131 -162 -131q-246 0 -246 425zM97 1181l159 300q25 17 48 17q33 0 52 -24q8 -13 8 -27q0 -17 -15 -38l-162 -228h-90z" />
<glyph unicode="&#xfb;" horiz-adv-x="557" d="M30 393v607q0 64 73 64t73 -64v-823q0 -48 22 -90t91 -42q3 0 3 4v950q0 65 73 65t73 -64v-901q0 -131 -162 -131q-246 0 -246 425zM31 1232q0 17 15 38l162 228h70l162 -228q15 -21 15 -38q0 -14 -8 -27q-19 -24 -52 -24q-23 0 -48 17l-104 197l-104 -197 q-25 -17 -48 -17q-33 0 -52 24q-8 13 -8 27z" />
<glyph unicode="&#xfc;" horiz-adv-x="557" d="M30 393v607q0 64 73 64t73 -64v-823q0 -48 22 -90t91 -42q3 0 3 4v950q0 65 73 65t73 -64v-901q0 -131 -162 -131q-246 0 -246 425zM48 1259q12 81 77 81q77 0 77 -85q-12 -75 -81 -75q-51 0 -73 79zM258 1259q12 81 77 81q77 0 77 -85q-12 -75 -81 -75q-51 0 -73 79z " />
<glyph unicode="&#xfd;" horiz-adv-x="652" d="M30 1019l15 -432q10 -629 258 -629h-12q0 -188 -137 -334v-67q141 69 204 190q83 0 184 1270h-28l-37 37h-24q-68 0 -88 -329q-33 -690 -74 -690h-12q-51 0 -87 503q0 516 -87 516h-22zM99 1181l159 300q25 17 48 17q33 0 52 -24q8 -13 8 -27q0 -17 -15 -38l-162 -228 h-90z" />
<glyph unicode="&#xff;" horiz-adv-x="652" d="M30 1019l15 -432q10 -629 258 -629h-12q0 -188 -137 -334v-67q141 69 204 190q83 0 184 1270h-28l-37 37h-24q-68 0 -88 -329q-33 -690 -74 -690h-12q-51 0 -87 503q0 516 -87 516h-22zM111 1265q12 81 77 81q77 0 77 -85q-12 -75 -81 -75q-51 0 -73 79zM321 1265 q12 81 77 81q77 0 77 -85q-12 -75 -81 -75q-51 0 -73 79z" />
<glyph unicode="&#x152;" horiz-adv-x="2048" />
<glyph unicode="&#x153;" horiz-adv-x="1933" />
<glyph unicode="&#x178;" horiz-adv-x="585" d="M30 1413l59 38q75 -19 102 -296q16 -157 115 -545q-8 27 -18 0q88 479 153 826h47l12 -12h29q-92 -721 -168 -894v-455q0 -95 -60 -95h-24q-62 0 -62 95v404q-88 113 -185 934zM135 1651q12 81 77 81q77 0 77 -85q-12 -75 -81 -75q-51 0 -73 79zM345 1651q12 81 77 81 q77 0 77 -85q-12 -75 -81 -75q-51 0 -73 79z" />
<glyph unicode="&#x2c6;" horiz-adv-x="656" d="M148 1232q0 17 15 38l162 228h70l162 -228q15 -21 15 -38q0 -14 -8 -27q-19 -24 -52 -24q-23 0 -48 17l-104 197l-104 -197q-25 -17 -48 -17q-33 0 -52 24q-8 13 -8 27z" />
<glyph unicode="&#x2dc;" horiz-adv-x="460" d="M35 1489h84q24 -79 44 -79q21 0 34 16q9 8 15 23q23 29 56 37q14 3 26 3q115 0 144 -160h-81q-18 78 -60 78q-12 0 -22 -14q-2 -4 -5 -8q-8 -15 -36 -35q-13 -9 -25 -12q-22 -9 -49 -9q-93 0 -125 160z" />
<glyph unicode="&#x2000;" horiz-adv-x="949" />
<glyph unicode="&#x2001;" horiz-adv-x="1898" />
<glyph unicode="&#x2002;" horiz-adv-x="949" />
<glyph unicode="&#x2003;" horiz-adv-x="1898" />
<glyph unicode="&#x2004;" horiz-adv-x="632" />
<glyph unicode="&#x2005;" horiz-adv-x="474" />
<glyph unicode="&#x2006;" horiz-adv-x="316" />
<glyph unicode="&#x2007;" horiz-adv-x="316" />
<glyph unicode="&#x2008;" horiz-adv-x="237" />
<glyph unicode="&#x2009;" horiz-adv-x="379" />
<glyph unicode="&#x200a;" horiz-adv-x="105" />
<glyph unicode="&#x2010;" horiz-adv-x="662" d="M128 723q0 51 39 51h280q31 0 31 -51q0 -50 -31 -50h-281q-38 0 -38 50z" />
<glyph unicode="&#x2011;" horiz-adv-x="662" d="M128 723q0 51 39 51h280q31 0 31 -51q0 -50 -31 -50h-281q-38 0 -38 50z" />
<glyph unicode="&#x2012;" horiz-adv-x="662" d="M128 723q0 51 39 51h280q31 0 31 -51q0 -50 -31 -50h-281q-38 0 -38 50z" />
<glyph unicode="&#x2013;" horiz-adv-x="755" d="M128 723q0 51 47 51h449q35 0 35 -51q0 -50 -35 -50h-450q-46 0 -46 50z" />
<glyph unicode="&#x2014;" horiz-adv-x="1052" d="M128 723q0 51 59 51h680q40 0 40 -51q0 -50 -40 -50h-682q-57 0 -57 50z" />
<glyph unicode="&#x2018;" horiz-adv-x="465" d="M98 1447q0 14 8 27q19 24 52 24q23 0 48 -17l159 -300h-90l-162 228q-15 21 -15 38z" />
<glyph unicode="&#x2019;" horiz-adv-x="465" d="M98 1181l159 300q25 17 48 17q33 0 52 -24q8 -13 8 -27q0 -17 -15 -38l-162 -228h-90z" />
<glyph unicode="&#x201a;" horiz-adv-x="502" d="M84 -234l159 300q25 17 48 17q33 0 52 -24q8 -13 8 -27q0 -17 -15 -37l-162 -229h-90z" />
<glyph unicode="&#x201c;" horiz-adv-x="663" d="M98 1447q0 14 8 27q19 24 52 24q23 0 48 -17l159 -300h-90l-162 228q-15 21 -15 38zM288 1447q0 14 8 27q19 24 52 24q23 0 48 -17l159 -300h-90l-162 228q-15 21 -15 38z" />
<glyph unicode="&#x201d;" horiz-adv-x="663" d="M98 1181l159 300q25 17 48 17q33 0 52 -24q8 -13 8 -27q0 -17 -15 -38l-162 -228h-90zM288 1181l159 300q25 17 48 17q33 0 52 -24q8 -13 8 -27q0 -17 -15 -38l-162 -228h-90z" />
<glyph unicode="&#x201e;" horiz-adv-x="663" d="M84 -234l159 300q25 17 48 17q33 0 52 -24q8 -13 8 -27q0 -17 -15 -37l-162 -229h-90zM264 -234l159 300q25 17 48 17q33 0 52 -24q8 -13 8 -27q0 -17 -15 -37l-162 -229h-90z" />
<glyph unicode="&#x2022;" horiz-adv-x="717" />
<glyph unicode="&#x2026;" horiz-adv-x="2048" />
<glyph unicode="&#x202f;" horiz-adv-x="379" />
<glyph unicode="&#x2039;" horiz-adv-x="682" />
<glyph unicode="&#x203a;" horiz-adv-x="682" />
<glyph unicode="&#x205f;" horiz-adv-x="474" />
<glyph unicode="&#x20ac;" />
<glyph unicode="&#x2122;" horiz-adv-x="850" d="M140 1514v70h47v55q0 33 37 60l61 -13v-102h50v-70h-50v-338q0 -89 53 -146l-79 -14q-72 0 -72 158v340h-47zM325 1047v475q0 39 118 62h24q52 -35 52 -42h-33q32 42 74 42h12q126 0 139 -426l26 -115l-21 -21h-42q-67 0 -67 247q-18 248 -42 256q-16 -4 -16 -45v-433 l-25 -25h-48l-25 25v421q0 39 -15 52h4q-17 0 -17 -40v-433l-25 -25h-48z" />
<glyph unicode="&#xe000;" horiz-adv-x="1065" d="M0 0v1065h1065v-1065h-1065z" />
</font>
</defs>
</svg>
